<svg width="12mm" height="12mm" version="1.1" viewBox="0 0 12 12" xmlns="http://www.w3.org/2000/svg">
	<g transform="translate(-17.789 205.88)">
		<path d="m26.762-197.25c-0.0025 0.2413-0.20179 0.56903-0.43109 0.75847-0.22895 0.1898-0.38206 0.13088-0.38206 0.13088-0.58632-0.27375-1.0615-0.69215-1.0615-0.69215s0.80151-1.8224 0.59866-3.3828c-0.1203-0.92393-0.96273-1.4637-1.6972-1.4887-0.7807 0.0325-1.4753 0.60925-1.6972 1.4887-0.38453 1.5258 0.59866 3.3828 0.59866 3.3828s-0.47554 0.4184-1.0619 0.69215c0 0-0.15275 0.0589-0.38206-0.13088-0.22895-0.18944-0.42862-0.51717-0.43074-0.75847-0.0025-0.24165 0.58385-0.23177 0.77576-0.20461 0 0-1.2442-1.584-1.2294-2.8702 0.01446-1.2658 0.95356-3.0949 3.4269-3.0759 2.4733-0.0191 3.4121 1.8101 3.4265 3.0759 0.01482 1.2862-1.2291 2.8702-1.2291 2.8702 0.19226-0.0272 0.77858-0.037 0.77576 0.20461m-2.9732-8.6265c-3.3136 0-6 2.6864-6 6s2.6864 6 6 6 6-2.6864 6-6-2.6864-6-6-6" fill="#57c9f4"/>
	</g>
</svg>
