<svg width="12mm" height="12mm" version="1.1" viewBox="0 0 12 12" xmlns="http://www.w3.org/2000/svg">
	<g transform="translate(-27.72 144.59)">
		<path d="m37.752-140.16c-0.2226 0.72567-0.60713 2.443-3.314 2.7284 0 0 1.7801 0.84208 1.9061 2.4483 0 0-1.5674 0.30939-2.564-1.3257 0 0-0.06279-0.0896-0.11924 0-0.9966 1.6351-2.564 1.3257-2.564 1.3257 0.12559-1.6062 1.9061-2.4483 1.9061-2.4483-2.7069-0.2854-3.0917-2.0027-3.314-2.7284-0.23707-0.94121 0.16933-0.94121 0.16933-0.94121s-0.43533 0.4766 1.2192 0.56374c1.2883 0.0681 2.1347 0.96696 2.4469 1.3621v-7e-4s0.14605 0.21625 0.33408 0.0762c0.25294-0.33973 1.1254-1.3649 2.5051-1.4376 1.6545-0.0871 1.2192-0.56374 1.2192-0.56374s0.4064 0 0.16933 0.94121m-4.0315-4.427c-3.3136 0-6 2.686-6 5.9997 0 3.314 2.6864 6 6 6 3.3136 0 6-2.686 6-6 0-3.3136-2.6864-5.9997-6-5.9997" fill="#dd3da5"/>
	</g>
</svg>
