<svg width="12mm" height="12mm" version="1.1" viewBox="0 0 12 12" xmlns="http://www.w3.org/2000/svg">
	<g transform="translate(23.821 57.715)">
		<path d="m-14.075-53.147c-0.18732 1.6489-0.59831 3.1083-0.74577 3.4167-0.14781 0.30833-0.3429 0.27164-0.3429 0.27164h-5.3298s-0.15064 0.01094-0.3429-0.27164c-0.25012-0.36901-0.60325-1.9032-0.7373-3.4226 0 0-0.02223-0.1965 0.09631-0.25541 0.08361-0.04163 1.1328 0.756 2.0204 1.4351 0 0 1.2333-2.0197 1.3885-2.2165 0.10266-0.13018 0.1912-0.19438 0.23954-0.19932 0.08079-3.52e-4 0.13758 0.06914 0.24024 0.19932 0.15487 0.19685 1.3885 2.2165 1.3885 2.2165 0.88759-0.6791 1.9272-1.4418 2.0204-1.4351 0.15416 0.01129 0.10478 0.26141 0.10478 0.26141m-3.7461-4.5678c-3.314 0-6 2.6864-6 6 0 3.3136 2.686 5.9997 6 5.9997 3.3133 0 6-2.686 6-5.9997 0-3.3136-2.6868-6-6-6" fill="#3dba77"/>
	</g>
</svg>
