<svg width="12mm" height="12mm" version="1.1" viewBox="0 0 12 12" xmlns="http://www.w3.org/2000/svg">
	<g transform="translate(-52.89 112.52)">
		<path d="m59.051-103.08s-2.099 0.18909-2.388-2.2458c0 0-0.09419-0.96062 1.0079-2.897 1.0008-1.759 0.52246-2.4508 0.42616-2.5633-0.01023-0.0116-0.01693-0.0187-0.01693-0.0187s0.0074 7e-3 0.01693 0.0187c0.16651 0.18768 1.5702 1.826 1.2739 3.3817 0 0 0.56691-0.86572 0.55139-1.5113 0 0 1.1804 1.433 1.1963 3.4477 0.01588 2.0154-1.1755 2.3566-2.0676 2.388m-0.16087-9.4435c-3.314 0-6 2.6864-6 6 0 3.314 2.686 6 6 6 3.3136 0 6-2.686 6-6 0-3.3136-2.6864-6-6-6" fill="#ee252b"/>
	</g>
</svg>
