<svg width="12mm" height="12mm" version="1.1" viewBox="0 0 12 12" xmlns="http://www.w3.org/2000/svg">
	<g transform="translate(-46.511 46.542)">
		<path d="m56.093-42.376s-0.45685-0.08749-0.97155 0.65088c-0.51506 0.73836-0.63147 1.875-1.1659 2.788-0.5341 0.91334-1.2531 1.4668-2.3315 1.4668-1.0784 0-2.2539-0.5147-2.1953-1.9914 0.05821-1.4767 0.6216-1.9089 0.6216-1.9089l2.1668-0.0025c0.65052 0.75777 0.59231 1.1053 0.63112 1.1924 0.03881 0.08749 0.30127 0.10689 0.43709-0.09701 0.13617-0.2039 0.2039-1.0492 1.1077-1.7388 0.90311-0.69003 1.7-0.54187 1.7-0.54187zm-3.5825-4.1667c-3.3136 0-6 2.6864-6 6s2.6864 6 6 6c3.3136 0 6-2.6864 6-6s-2.6864-6-6-6" fill="#ffb609"/>
	</g>
</svg>
