<svg width="12.002mm" height="12.022mm" version="1.1" viewBox="0 0 12.002 12.022" xmlns="http://www.w3.org/2000/svg">
	<g transform="translate(-159.72 -129.49)">
		<path d="m169.15 133.42v3.5355c-0.01-0.68651-0.5641-1.6066-1.936-1.9928v-3.5352c1.372 0.38594 1.9265 1.306 1.936 1.9925" fill="#296587"/>
		<path d="m167.21 131.43v3.5352c-0.17816-0.0497-0.37042-0.091-0.5768-0.12136v-3.5359c0.20638 0.0307 0.39864 0.0716 0.5768 0.12206" fill="#2b6a8c"/>
		<path d="m166.64 131.31v3.5355c-0.18521-0.0275-0.38241-0.0459-0.59161-0.055v-3.5352c0.2092 8e-3 0.4064 0.0275 0.59161 0.0547" fill="#2d6e92"/>
		<path d="m166.05 131.25v3.5352c-0.0921-4e-3 -0.18627-6e-3 -0.28328-6e-3h-0.0765c-0.12312 0-0.24271 3e-3 -0.35842 0.01v-3.5355c0.11571-6e-3 0.2353-0.01 0.35842-0.01 0.013 0 0.0258 0 0.0384 3.5e-4 0.0127-3.5e-4 0.0258-3.5e-4 0.0381-3.5e-4 0.097 0 0.19121 2e-3 0.28328 6e-3" fill="#2f7397"/>
		<path d="m165.33 131.25v3.5355c-0.19861 0.0109-0.38629 0.0307-0.56303 0.0586v-3.5355c0.17674-0.0279 0.36442-0.0476 0.56303-0.0586" fill="#31779c"/>
		<path d="m164.77 131.31v3.5355c-0.18979 0.0296-0.36724 0.0688-0.53269 0.11571v-3.5355c0.16545-0.0469 0.3429-0.0857 0.53269-0.11571" fill="#337ba1"/>
		<path d="m164.23 131.43v3.5352c-0.23354 0.0663-0.44379 0.14746-0.63112 0.24094v-3.5352c0.18733-0.0935 0.39758-0.17498 0.63112-0.24095" fill="#357ea5"/>
		<path d="m163.6 131.67v3.5352c-0.35278 0.17568-0.62583 0.39264-0.82938 0.62547v-3.5355c0.20355-0.23318 0.4766-0.44979 0.82938-0.62512" fill="#3783aa"/>
		<path d="m162.77 132.29v3.5352c-0.13441 0.15451-0.23812 0.31538-0.31362 0.47625v-3.5352c0.0755-0.16087 0.17921-0.32209 0.31362-0.47625" fill="#357ea5"/>
		<path d="m162.46 132.77v3.5352c-0.0554 0.11853-0.0956 0.23671-0.12242 0.35172v-3.5355c0.0268-0.11501 0.067-0.23319 0.12242-0.35137" fill="#337ba1"/>
		<path d="m162.34 133.12v3.5352c-0.0222 0.0988-0.0346 0.19508-0.0367 0.28716v-3.5355c2e-3 -0.0921 0.0145-0.18839 0.0367-0.28681" fill="#31779c"/>
		<path d="m162.3 133.41v3.5352c0 4e-3 0 8e-3 -3.5e-4 0.0116v-3.5359c3.5e-4 -4e-3 3.5e-4 -7e-3 3.5e-4 -0.0109" fill="#2f7397"/>
		<path d="m168.15 135.44v3.5352c-0.0547 0-0.10654 2e-3 -0.15064 4e-3v-3.5355c0.0441-2e-3 0.096-4e-3 0.15064-4e-3" fill="#2f7397"/>
		<path d="m168 135.44v3.5355c-0.0314 2e-3 -0.0593 4e-3 -0.0815 6e-3v-3.5355c0.0222-2e-3 0.0501-5e-3 0.0815-6e-3" fill="#31779c"/>
		<path d="m163.53 135.45v3.5355c-0.0289-3e-3 -0.067-6e-3 -0.11077-7e-3v-3.5355c0.0437 1e-3 0.0818 4e-3 0.11077 7e-3" fill="#2d6e92"/>
		<path d="m163.42 135.44v3.5355c-0.0367-1e-3 -0.0769-2e-3 -0.11924-2e-3 -0.0455 0-0.0935 1e-3 -0.14075 4e-3v-3.5355c0.0473-2e-3 0.0952-4e-3 0.14075-4e-3 0.0423 0 0.0825 1e-3 0.11924 2e-3" fill="#2f7397"/>
		<path d="m163.16 135.44v3.5355c-0.0571 3e-3 -0.11395 8e-3 -0.16616 0.0166v-3.5352c0.0522-8e-3 0.10901-0.0134 0.16616-0.0169" fill="#31779c"/>
		<path d="m162.99 135.46v3.5352c-0.0353 6e-3 -0.0681 0.0127-0.0974 0.0208v-3.5355c0.0293-8e-3 0.0621-0.0148 0.0974-0.0205" fill="#337ba1"/>
		<path d="m162.89 135.48v3.5355c-0.0261 7e-3 -0.0497 0.0159-0.0695 0.0258v-3.5355c0.0198-0.01 0.0434-0.0183 0.0695-0.0258" fill="#357ea5"/>
		<path d="m162.82 135.51v3.5352c-0.0215 0.0109-0.0384 0.0229-0.0508 0.0363v-3.5352c0.0124-0.0141 0.0293-0.0261 0.0508-0.0363" fill="#3783aa"/>
		<path d="m162.77 135.54v3.5352c-6e-3 7e-3 -0.01 0.0134-0.013 0.0201v-3.5355c3e-3 -7e-3 7e-3 -0.0134 0.013-0.0198" fill="#357ea5"/>
		<path d="m162.76 135.56v3.5355c-2e-3 5e-3 -4e-3 0.01-5e-3 0.0145v-3.5355c1e-3 -5e-3 3e-3 -0.01 5e-3 -0.0145" fill="#337ba1"/>
		<path d="m162.76 135.58v3.5355c-1e-3 5e-3 -2e-3 0.01-2e-3 0.0148v-3.5355c0-5e-3 7.1e-4 -0.01 2e-3 -0.0148" fill="#31779c"/>
		<path d="m162.75 135.59v3.5375-3.5355z" fill="#2f7397"/>
		<path d="m168.7 135.59v3.5355c1e-3 -0.0533-0.0561-0.0893-0.1404-0.11324v-3.5352c0.0843 0.0236 0.14146 0.0596 0.1404 0.11289" fill="#296587"/>
		<path d="m168.56 135.48v3.5352c-0.0328-9e-3 -0.0691-0.0159-0.1083-0.0219v-3.5352c0.0392 6e-3 0.0755 0.013 0.1083 0.0219" fill="#2b6a8c"/>
		<path d="m168.45 135.46v3.5352c-0.0575-8e-3 -0.12065-0.0134-0.18345-0.0159v-3.5355c0.0628 2e-3 0.12594 8e-3 0.18345 0.0162" fill="#2d6e92"/>
		<path d="m168.27 135.44v3.5352c-0.0384-1e-3 -0.0769-2e-3 -0.11359-2e-3v-3.5355c0.0367 0 0.0751 7.1e-4 0.11359 2e-3" fill="#2f7397"/>
		<path d="m164.63 135.73v3.5352c-0.0409-0.0543-0.68968-0.92146-0.68968-1.832v-3.5355c0 0.91087 0.64876 1.778 0.68968 1.8323" fill="#296587"/>
		<path d="m167.46 133.73v3.5355c0 0.0219-3.5e-4 0.0437-1e-3 0.066v-3.5355c7e-4 -0.0219 1e-3 -0.0441 1e-3 -0.066" fill="#2f7397"/>
		<path d="m167.46 133.8v3.5352c-6e-3 0.20108-0.0349 0.40005-0.078 0.58949v-3.5352c0.043-0.18979 0.0723-0.38876 0.078-0.58949" fill="#31779c"/>
		<path d="m167.38 134.39v3.5352c-0.0787 0.34325-0.20249 0.65546-0.31397 0.89323v-3.5359c0.11148-0.23742 0.2353-0.54963 0.31397-0.89253" fill="#337ba1"/>
		<path d="m167.07 135.28v3.5355c-0.12171 0.25929-0.22754 0.42898-0.24201 0.45191v-3.5355c0.0145-0.0229 0.1203-0.19297 0.24201-0.45191" fill="#357ea5"/>
		<path d="m171.73 133.74v3.5355c0 0.0268-3.5e-4 0.0536-1e-3 0.0801v-3.5352c7.1e-4 -0.0268 1e-3 -0.0536 1e-3 -0.0804" fill="#2f7397"/>
		<path d="m171.73 133.82v3.5352c-6e-3 0.20425-0.031 0.40463-0.0759 0.60078v-3.5359c0.0448-0.19579 0.0702-0.39616 0.0759-0.60007" fill="#31779c"/>
		<path d="m171.65 134.42v3.5355c-0.0515 0.22507-0.12735 0.44415-0.22683 0.65581v-3.5359c0.0995-0.21131 0.17533-0.43039 0.22683-0.65546" fill="#337ba1"/>
		<path d="m171.42 135.07v3.5355c-0.1464 0.31256-0.3429 0.60925-0.58244 0.88441v-3.5352c0.23954-0.27552 0.43604-0.57186 0.58244-0.88477" fill="#357ea5"/>
		<path d="m170.84 135.96v3.5352c-0.43004 0.49459-0.99942 0.9218-1.669 1.2541v-3.5352c0.66957-0.33302 1.239-0.76023 1.669-1.2541" fill="#3783aa"/>
		<path d="m169.17 137.21v3.5352c-0.37747 0.18803-0.7867 0.34537-1.2217 0.46813v-3.5359c0.43497-0.12241 0.8442-0.28011 1.2217-0.46743" fill="#357ea5"/>
		<path d="m167.95 137.68v3.5355c-0.29386 0.0832-0.59866 0.14993-0.91334 0.19967v-3.5359c0.31468-0.0494 0.61948-0.11642 0.91334-0.19932" fill="#337ba1"/>
		<path d="m167.04 137.88v3.5355c-0.27376 0.0434-0.55457 0.073-0.84102 0.0885v-3.5352c0.28645-0.0159 0.56726-0.0459 0.84102-0.0889" fill="#31779c"/>
		<path d="m166.2 137.97v3.5352c-0.15487 9e-3 -0.31186 0.0131-0.4699 0.0131-0.12383 0-0.24624-2e-3 -0.3683-8e-3v-3.5352c0.12206 5e-3 0.24447 8e-3 0.3683 8e-3 0.15804 0 0.31503-5e-3 0.4699-0.0127" fill="#2f7397"/>
		<path d="m165.36 137.97v3.5352c-0.29528-0.0123-0.5842-0.0402-0.86643-0.0818v-3.5352c0.28223 0.0416 0.57115 0.0691 0.86643 0.0818" fill="#2d6e92"/>
		<path d="m164.49 137.89v3.5352c-0.33831-0.0497-0.66639-0.11995-0.98072-0.20814v-3.5359c0.31433 0.0885 0.64241 0.15875 0.98072 0.20884" fill="#2b6a8c"/>
		<path d="m163.51 137.68v3.5355c-2.2176-0.62301-3.785-2.1541-3.785-3.9444v-3.5359c0 1.7907 1.5674 3.3214 3.785 3.9448" fill="#296587"/>
		<path d="m168.15 135.44c-0.0938 0-0.17851 5e-3 -0.23213 0.01 0.0621-0.0557 1.2446-1.1197 1.2284-2.0295-0.0123-0.89112-0.94226-2.1756-3.3874-2.1756-0.0123 0-0.0258 0-0.0384 3.5e-4 -0.0127-3.5e-4 -0.0254-3.5e-4 -0.0381-3.5e-4 -2.4448 0-3.3718 1.2848-3.3877 2.1756-0.0159 0.90981 1.1666 1.9738 1.2291 2.0295-0.0533-5e-3 -0.13688-0.01-0.23037-0.01-0.24165 0-0.54645 0.0307-0.54469 0.15381 0 0.17075 0.20038 0.40393 0.42863 0.53658 0.14217 0.0822 0.25435 0.0984 0.31997 0.0984 0.0416 0 0.0632-6e-3 0.0646-6e-3 0.58385-0.19297 1.0368-0.47449 1.0604-0.4893-0.0494-0.0656-0.98108-1.3113-0.5969-2.3911 0.21907-0.62195 0.91405-1.0305 1.6951-1.053 0.7366 0.018 1.5783 0.3997 1.699 1.053 0.2032 1.1046-0.55986 2.3266-0.60007 2.3911 0.0236 0.0148 0.47625 0.29633 1.0633 0.4893 1e-3 3.5e-4 0.0233 6e-3 0.0646 6e-3 0.0653 0 0.17674-0.0162 0.31644-0.0984 0.22895-0.13265 0.42898-0.36583 0.43215-0.53658 2e-3 -0.12312-0.30303-0.15381-0.54574-0.15381m-2.4296-5.9457c3.315 0 6.0011 1.899 6.0011 4.2429s-2.686 4.2432-6.0011 4.2432c-3.3144 0-6.0004-1.8994-6.0004-4.2432s2.686-4.2429 6.0004-4.2429" fill="#57c9f4"/>
	</g>
</svg>
