<svg width="12.002mm" height="12.228mm" version="1.1" viewBox="0 0 12.002 12.228" xmlns="http://www.w3.org/2000/svg">
	<g transform="translate(-165.37 -100.73)">
		<path d="m175.48 103.5v3.7416c0-0.20461-0.1076-0.26917-0.18063-0.28963v-3.7419c0.073 0.0205 0.18063 0.085 0.18063 0.28998" fill="#83245a"/>
		<path d="m175.3 103.21v3.7416c-0.012-3e-3 -0.0229-5e-3 -0.0328-7e-3v-3.7419c0.01 1e-3 0.0208 4e-3 0.0328 7e-3" fill="#87255d"/>
		<path d="m175.26 103.2v3.7419c-0.0102-1e-3 -0.0187-2e-3 -0.0243-2e-3v-3.7419c6e-3 3.6e-4 0.0141 1e-3 0.0243 2e-3" fill="#8a2660"/>
		<path d="m175.24 103.2v3.7419c-4e-3 -3.5e-4 -7e-3 -3.5e-4 -8e-3 -3.5e-4v-3.7416h8e-3" fill="#8e2763"/>
		<path d="m167.51 103.2v3.7416c-2e-3 0-5e-3 0-0.0102 3.5e-4v-3.7419h0.0102" fill="#8e2763"/>
		<path d="m167.5 103.2v3.7416c-6e-3 3.6e-4 -0.0145 1e-3 -0.0247 3e-3v-3.7419c0.0102-1e-3 0.0183-2e-3 0.0247-2e-3" fill="#922867"/>
		<path d="m167.47 103.2v3.7419c-9e-3 1e-3 -0.0194 4e-3 -0.0303 6e-3v-3.7416c0.0109-3e-3 0.0215-5e-3 0.0303-7e-3" fill="#96296a"/>
		<path d="m167.44 103.21v3.7416c-0.0138 4e-3 -0.0286 9e-3 -0.0437 0.0169v-3.7416c0.0152-8e-3 0.03-0.013 0.0437-0.0169" fill="#992a6d"/>
		<path d="m167.4 103.22v3.7416c-0.0233 0.012-0.0473 0.0286-0.0684 0.0529v-3.7419c0.0212-0.024 0.0452-0.0409 0.0684-0.0526" fill="#9d2b70"/>
		<path d="m167.33 103.28v3.7416c-0.0141 0.0159-0.0265 0.0349-0.037 0.0575v-3.7419c0.0106-0.0226 0.0229-0.0416 0.037-0.0572" fill="#992a6d"/>
		<path d="m167.29 103.33v3.7419c-9e-3 0.0183-0.0162 0.0395-0.0219 0.0635v-3.7416c6e-3 -0.024 0.013-0.0452 0.0219-0.0639" fill="#96296a"/>
		<path d="m167.27 103.4v3.7416c-6e-3 0.0261-9e-3 0.055-0.0102 0.0878v-3.7416c1e-3 -0.0332 4e-3 -0.0621 0.0102-0.0878" fill="#922867"/>
		<path d="m167.26 103.49v3.7561-3.7416z" fill="#8e2763"/>
		<path d="m168.73 103.6v3.7419c-0.018-7.1e-4 -0.0353-1e-3 -0.0522-2e-3v-3.7419c0.0169 1e-3 0.0342 2e-3 0.0522 2e-3" fill="#8e2763"/>
		<path d="m168.67 103.6v3.7419c-0.28892-0.0123-0.51258-0.0328-0.68403-0.0579v-3.7419c0.17145 0.0254 0.39511 0.0455 0.68403 0.0579" fill="#8a2660"/>
		<path d="m167.99 103.54v3.7416c-0.11677-0.0169-0.20955-0.0363-0.28328-0.0568v-3.7419c0.0737 0.0205 0.16651 0.0399 0.28328 0.0572" fill="#87255d"/>
		<path d="m167.71 103.48v3.7419c-0.20708-0.0582-0.26071-0.12594-0.26071-0.18062v-3.7416c0 0.0547 0.0536 0.12241 0.26071 0.18027" fill="#83245a"/>
		<path d="m171.17 104.56v3.7416c-0.22825-0.20567-0.7433-0.60255-1.511-0.81774v-3.7419c0.76765 0.21555 1.2827 0.61243 1.511 0.8181" fill="#83245a"/>
		<path d="m169.66 103.74v3.7416c-0.15346-0.043-0.31644-0.0787-0.49001-0.10406v-3.7419c0.17357 0.0254 0.33655 0.0614 0.49001 0.10442" fill="#87255d"/>
		<path d="m169.17 103.64v3.7419c-0.1337-0.0198-0.27305-0.0335-0.41839-0.0395v-3.7419c0.14534 6e-3 0.28469 0.0198 0.41839 0.0395" fill="#8a2660"/>
		<path d="m168.75 103.6v3.7419c-9e-3 -3.6e-4 -0.0173-7.1e-4 -0.0254-1e-3v-3.7419c8e-3 3.6e-4 0.0169 7.1e-4 0.0254 1e-3" fill="#8e2763"/>
		<path d="m175.29 103.3v3.7436-3.7419z" fill="#8e2763"/>
		<path d="m175.29 103.3v3.7419c0 5e-3 -7.1e-4 0.0109-2e-3 0.0166v-3.7419c1e-3 -6e-3 2e-3 -0.0109 2e-3 -0.0166" fill="#922867"/>
		<path d="m175.29 103.32v3.7416c-1e-3 7e-3 -4e-3 0.0131-7e-3 0.0198v-3.7419c3e-3 -7e-3 6e-3 -0.0131 7e-3 -0.0194" fill="#96296a"/>
		<path d="m175.28 103.34v3.7416c-5e-3 0.01-0.0116 0.0201-0.0215 0.0303v-3.7419c0.01-0.01 0.0166-0.0201 0.0215-0.03" fill="#992a6d"/>
		<path d="m175.26 103.37v3.7416c-0.0173 0.019-0.0434 0.0381-0.0808 0.0571v-3.7419c0.0374-0.0187 0.0635-0.0381 0.0808-0.0568" fill="#9d2b70"/>
		<path d="m175.18 103.43v3.7419c-0.037 0.0187-0.0857 0.037-0.14817 0.0547v-3.7419c0.0624-0.0176 0.11113-0.036 0.14817-0.0547" fill="#992a6d"/>
		<path d="m175.03 103.48v3.7416c-0.0663 0.0191-0.14887 0.0363-0.25012 0.0526v-3.7419c0.10125-0.0159 0.1838-0.0335 0.25012-0.0522" fill="#96296a"/>
		<path d="m174.78 103.53v3.7419c-0.15063 0.0236-0.3436 0.043-0.58949 0.0568v-3.7419c0.24589-0.0134 0.43886-0.0332 0.58949-0.0568" fill="#922867"/>
		<path d="m174.19 103.59v3.7416c-0.0575 4e-3 -0.11782 6e-3 -0.18168 8e-3 -0.024 1e-3 -0.048 2e-3 -0.072 4e-3v-3.7419c0.024-1e-3 0.048-2e-3 0.072-4e-3 0.0639-2e-3 0.12418-5e-3 0.18168-8e-3" fill="#8e2763"/>
		<path d="m173.94 103.6v3.7416c-0.14147 8e-3 -0.27729 0.0226-0.40781 0.0434v-3.7419c0.13052-0.0205 0.26634-0.0353 0.40781-0.043" fill="#922867"/>
		<path d="m173.53 103.64v3.7416c-0.16052 0.0258-0.31292 0.0596-0.4565 0.10019v-3.7419c0.14358-0.0406 0.29598-0.0744 0.4565-0.0998" fill="#96296a"/>
		<path d="m173.08 103.74v3.7419c-0.25612 0.072-0.48401 0.16404-0.68298 0.26282v-3.7419c0.19897-0.0984 0.42686-0.1905 0.68298-0.26282" fill="#992a6d"/>
		<path d="m172.39 104.01v3.7416c-0.45403 0.22507-0.75494 0.48295-0.88583 0.60819v-3.7416c0.13089-0.12559 0.4318-0.38312 0.88583-0.60819" fill="#9d2b70"/>
		<path d="m171.51 104.61v3.7416l-6e-3 3e-3v-3.7419l6e-3 -3e-3" fill="#9d2b70"/>
		<path d="m171.5 104.62v3.7416c-0.018 9e-3 -0.0353 0.0155-0.0522 0.0205v-3.7419c0.0169-5e-3 0.0342-0.0113 0.0522-0.0201" fill="#992a6d"/>
		<path d="m171.45 104.64v3.7416c-0.0106 3e-3 -0.0212 6e-3 -0.0314 7e-3v-3.7416c0.0102-2e-3 0.0208-4e-3 0.0314-7e-3" fill="#96296a"/>
		<path d="m171.42 104.64v3.7419c-9e-3 1e-3 -0.018 2e-3 -0.0265 3e-3v-3.7419c9e-3 -3.5e-4 0.0176-1e-3 0.0265-3e-3" fill="#922867"/>
		<path d="m171.39 104.65v3.7419c-5e-3 0-0.01 3.5e-4 -0.0141 3.5e-4v-3.7419c5e-3 0 9e-3 0 0.0141-3.5e-4" fill="#8e2763"/>
		<path d="m171.38 104.65v3.7416h-0.0116v-3.7419c4e-3 3.6e-4 7e-3 3.6e-4 0.0116 3.6e-4" fill="#8e2763"/>
		<path d="m171.37 104.65v3.7419c-0.01-7.1e-4 -0.0194-1e-3 -0.0282-3e-3v-3.7416c9e-3 1e-3 0.0183 2e-3 0.0282 2e-3" fill="#8a2660"/>
		<path d="m171.34 104.64v3.7416c-0.0123-2e-3 -0.0236-4e-3 -0.0349-7e-3v-3.7416c0.0113 3e-3 0.0226 6e-3 0.0349 7e-3" fill="#87255d"/>
		<path d="m171.3 104.64v3.7419c-0.0797-0.0226-0.12841-0.0734-0.13159-0.0769v-3.7416c3e-3 3e-3 0.0519 0.0543 0.13159 0.0766" fill="#83245a"/>
		<path d="m170.65 105.79v3.7416c-0.031 0.0106-0.25365 0.085-0.53657 0.22471v-3.7419c0.28292-0.1397 0.50553-0.21413 0.53657-0.22437" fill="#992a6d"/>
		<path d="m170.11 106.02v3.7419c-0.31856 0.15734-0.71402 0.39793-0.99942 0.72354v-3.7416c0.2854-0.32597 0.68086-0.56656 0.99942-0.7239" fill="#9d2b70"/>
		<path d="m169.12 106.74v3.7416c-0.10125 0.11606-0.18874 0.24271-0.25365 0.38064v-3.7419c0.0649-0.13794 0.1524-0.26423 0.25365-0.38029" fill="#992a6d"/>
		<path d="m168.86 107.12v3.7419c-0.0395 0.0836-0.0709 0.17145-0.0921 0.26352v-3.7419c0.0212-0.0921 0.0526-0.17956 0.0921-0.26353" fill="#96296a"/>
		<path d="m168.77 107.38v3.7416c-0.0102 0.0455-0.0183 0.0917-0.0233 0.13899v-3.7416c5e-3 -0.0473 0.013-0.0938 0.0233-0.13899" fill="#922867"/>
		<path d="m173.99 107.52v3.7416c-0.127-1.1359-1.8189-1.7011-1.9082-1.7307v-3.7419c0.0892 0.03 1.7812 0.59514 1.9082 1.7311" fill="#83245a"/>
		<path d="m175.4 103.86c0.23812-0.66675-0.14817-0.66675-0.16863-0.66675 0.0219 0.0169 0.43532 0.3369-1.2192 0.3997-1.3811 0.0515-2.2539 0.77681-2.5047 1.0171-0.0466 0.024-0.0907 0.0331-0.13018 0.0331-0.12312 0-0.20249-0.0829-0.20638-0.0871-0.31115-0.28046-1.156-0.91617-2.4448-0.96309-1.6542-0.0628-1.2411-0.38276-1.2192-0.3997-0.0204 0-0.40639 0-0.17144 0.66675 0.22225 0.51189 0.60924 1.7265 3.3147 1.9286-0.0893 0.0296-1.7815 0.59478-1.905 1.7311 6e-3 7.1e-4 0.11888 0.0166 0.3122 0.0166 0.50765 0 1.5279-0.11536 2.2497-0.95285 0.0194-0.0219 0.0392-0.0289 0.0571-0.0289 0.0356 0 0.0621 0.0275 0.0635 0.0289 0.72249 0.83749 1.7445 0.95285 2.2528 0.95285 0.19367 0 0.30691-0.0159 0.31291-0.0166-0.12735-1.1363-1.8193-1.7014-1.9082-1.7311 2.7079-0.20214 3.0925-1.4168 3.3147-1.9286m-4.0326-3.1316c3.315 0 6.0011 1.899 6.0011 4.2429 0 2.3438-2.6861 4.2432-6.0011 4.2432-3.3143 0-6.0004-1.8994-6.0004-4.2432 0-2.3439 2.6861-4.2429 6.0004-4.2429" fill="#dd3da5"/>
		<path d="m177.37 104.98v3.7416c0 0.0272-3.5e-4 0.0536-1e-3 0.0804v-3.7416c7.1e-4 -0.0268 1e-3 -0.0536 1e-3 -0.0804" fill="#8e2763"/>
		<path d="m177.37 105.06v3.7416c-6e-3 0.20426-0.031 0.40428-0.0759 0.60043v-3.7416c0.0448-0.19614 0.0702-0.39652 0.0759-0.60042" fill="#922867"/>
		<path d="m177.29 105.66v3.7416c-0.0515 0.22507-0.12735 0.44415-0.22683 0.65581v-3.7419c0.0995-0.21167 0.17533-0.43074 0.22683-0.65546" fill="#96296a"/>
		<path d="m177.07 106.31v3.7419c-0.1464 0.31256-0.3429 0.60889-0.58244 0.88441v-3.7416c0.23954-0.27552 0.43604-0.5722 0.58244-0.88476" fill="#992a6d"/>
		<path d="m176.48 107.2v3.7416c-0.43004 0.49424-0.99942 0.92146-1.669 1.2541v-3.7419c0.66957-0.33267 1.239-0.75988 1.669-1.2538" fill="#9d2b70"/>
		<path d="m174.81 108.45v3.7416c-0.37747 0.18768-0.78669 0.34537-1.2217 0.46814v-3.7419c0.43498-0.12277 0.8442-0.28011 1.2217-0.46779" fill="#992a6d"/>
		<path d="m173.59 108.92v3.7419c-0.29387 0.0829-0.59867 0.14993-0.91335 0.19932v-3.7419c0.31468-0.0494 0.61948-0.11642 0.91335-0.19932" fill="#96296a"/>
		<path d="m172.68 109.12v3.7416c-0.27376 0.0434-0.55457 0.073-0.84103 0.0889v-3.7419c0.28646-0.0155 0.56727-0.0455 0.84103-0.0886" fill="#922867"/>
		<path d="m171.84 109.21v3.7416c-0.15487 8e-3 -0.31185 0.0131-0.4699 0.0131-0.12382 0-0.24624-3e-3 -0.3683-8e-3v-3.7419c0.12206 5e-3 0.24448 8e-3 0.3683 8e-3 0.15805 0 0.31503-4e-3 0.4699-0.0127" fill="#8e2763"/>
		<path d="m171 109.21v3.7419c-0.29527-0.0127-0.5842-0.0402-0.86642-0.0819v-3.7419c0.28222 0.0416 0.57115 0.0691 0.86642 0.0818" fill="#8a2660"/>
		<path d="m170.13 109.13v3.7419c-0.33832-0.0501-0.6664-0.1203-0.98073-0.20884v-3.7416c0.31433 0.0886 0.64241 0.1584 0.98073 0.2085" fill="#87255d"/>
		<path d="m169.15 108.92v3.7416c-2.2176-0.623-3.785-2.1541-3.785-3.9444v-3.7419c0 1.7907 1.5674 3.3214 3.785 3.9448" fill="#83245a"/>
	</g>
</svg>
