<svg width="11.998mm" height="12.022mm" version="1.1" viewBox="0 0 11.998 12.022" xmlns="http://www.w3.org/2000/svg">
	<g transform="translate(-110.26 51.078)">
		<path d="m116.25-45.189h-7e-4v-3.5355h7e-4z" fill="#236244"/>
		<path d="m116.25-48.725v3.5355c-3e-3 0-6e-3 3.53e-4 -0.01 0.0011v-3.5355c3e-3 -7.05e-4 6e-3 -0.0011 0.01-0.0011" fill="#236547"/>
		<path d="m116.24-48.724v3.5355c-5e-3 7.05e-4 -0.0106 0.0021-0.0166 0.0039v-3.5355c6e-3 -0.0018 0.0113-0.0032 0.0166-0.0039" fill="#24694a"/>
		<path d="m116.22-48.72v3.5355c-0.0138 0.0039-0.0293 0.0099-0.0462 0.01834v-3.5355c0.0169-0.0085 0.0325-0.01446 0.0462-0.01834" fill="#266e4d"/>
		<path d="m116.18-48.701v3.5355c-0.0459 0.02258-0.10301 0.06209-0.1651 0.11818v-3.5355c0.0621-0.05609 0.11924-0.0956 0.1651-0.11818" fill="#27714f"/>
		<path d="m120.01-47.908v3.5355c0-0.04445-0.0138-0.09913-0.0776-0.11712v-3.5355c0.0638 0.01799 0.0776 0.07302 0.0776 0.11712" fill="#1e553c"/>
		<path d="m119.94-48.025v3.5355c-6e-3 -0.0018-0.012-0.0032-0.019-0.0042v-3.5355c7e-3 0.0011 0.013 0.0025 0.019 0.0042" fill="#1f5a3e"/>
		<path d="m119.92-48.029v3.5355c-6e-3 -7.06e-4 -0.0127-0.0014-0.0194-0.0018v-3.5355c7e-3 3.53e-4 0.013 0.0011 0.0194 0.0018" fill="#205d41"/>
		<path d="m112.61-48.032v3.5355c-9e-3 0.0028-0.0169 0.0064-0.0243 0.0099v-3.5355c7e-3 -0.0035 0.0159-0.0071 0.0243-0.0099" fill="#266e4d"/>
		<path d="m112.58-48.022v3.5355c-0.0183 0.0092-0.0328 0.02081-0.0437 0.03351v-3.5355c0.0109-0.0127 0.0254-0.02434 0.0437-0.03351" fill="#27714f"/>
		<path d="m112.54-47.988v3.5355c-9e-3 0.01023-0.0159 0.02152-0.0212 0.03245v-3.5355c5e-3 -0.01094 0.0124-0.02223 0.0212-0.03246" fill="#266e4d"/>
		<path d="m112.52-47.956v3.5355c-5e-3 0.01094-8e-3 0.02187-0.0109 0.03281v-3.5355c3e-3 -0.01094 6e-3 -0.02187 0.0109-0.03281" fill="#24694a"/>
		<path d="m112.51-47.923v3.5355c-3e-3 0.01411-5e-3 0.02716-5e-3 0.03845v-3.5355c3.5e-4 -0.01129 2e-3 -0.02434 5e-3 -0.03845" fill="#236547"/>
		<path d="m112.5-47.885v3.5408-3.5355z" fill="#236244"/>
		<path d="m117.88-47.016v3.5355c-0.0617-0.07126-1.2319-1.4277-1.3875-1.567-0.0822-0.07232-0.13335-0.11818-0.19156-0.13476v-3.5355c0.0582 0.01658 0.10936 0.06244 0.19156 0.13476 0.15557 0.13935 1.3257 1.4958 1.3875 1.567" fill="#1e553c"/>
		<path d="m116.3-48.718v3.5355c-7e-3 -0.0021-0.0145-0.0035-0.0219-0.0049v-3.5355c7e-3 0.0014 0.0145 0.0028 0.0219 0.0049" fill="#1f5a3e"/>
		<path d="m116.28-48.723v3.5355c-6e-3 -7.06e-4 -0.0127-0.0014-0.0194-0.0018v-3.5355c7e-3 3.53e-4 0.0131 0.0011 0.0194 0.0018" fill="#205d41"/>
		<path d="m116.26-48.724v3.5355c-3e-3 -3.53e-4 -6e-3 -3.53e-4 -9e-3 -3.53e-4v-3.5352h9e-3" fill="#236244"/>
		<path d="m119.9-48.031v3.5355h-4e-3v-3.5355h4e-3" fill="#236244"/>
		<path d="m119.89-48.031v3.5355c-3e-3 3.53e-4 -6e-3 7.05e-4 -9e-3 0.0014v-3.5355c3e-3 -7.05e-4 6e-3 -0.0011 9e-3 -0.0014" fill="#236547"/>
		<path d="m119.88-48.029v3.5355c-4e-3 7.05e-4 -8e-3 0.0018-0.0127 0.0032v-3.5356c5e-3 -0.0014 9e-3 -0.0025 0.0127-0.0032" fill="#24694a"/>
		<path d="m119.87-48.026v3.5355c-0.067 0.0194-0.23213 0.0949-0.45402 0.20461v-3.5355c0.22189-0.10971 0.38699-0.18521 0.45402-0.20461" fill="#266e4d"/>
		<path d="m119.42-47.822v3.5355c-0.40463 0.20002-1.0001 0.51364-1.5402 0.80539v-3.5355c0.54011-0.29175 1.1356-0.60537 1.5402-0.80539" fill="#27714f"/>
		<path d="m114.62-47.016v3.5355c-0.8054-0.43674-1.7477-0.94227-1.9742-1.0086v-3.5355c0.22648 0.06632 1.1688 0.57185 1.9742 1.0086" fill="#1e553c"/>
		<path d="m112.65-48.025v3.5355c-8e-3 -0.0025-0.0159-0.0046-0.0222-0.0056v-3.5355c6e-3 0.0011 0.0138 0.0032 0.0222 0.0056" fill="#1f5a3e"/>
		<path d="m112.62-48.03v3.5355c-4e-3 -7.06e-4 -8e-3 -0.0011-0.0109-0.0014v-3.5355c3e-3 3.53e-4 7e-3 7.05e-4 0.0109 0.0014" fill="#205d41"/>
		<path d="m112.61-48.032v3.5355c-1e-3 -3.53e-4 -3e-3 -3.53e-4 -4e-3 -3.53e-4v-3.5352h4e-3" fill="#236244"/>
		<path d="m116.01-48.583v3.5355c-0.11818 0.10583-0.82479 0.9151-1.1839 1.3286v-3.5355c0.35913-0.41346 1.0657-1.2227 1.1839-1.3286" fill="#27714f"/>
		<path d="m114.83-47.255v3.5355c-0.11289 0.13053-0.19156 0.22119-0.20637 0.23848v-3.5355c0.0148-0.01729 0.0935-0.10795 0.20637-0.23848" fill="#266e4d"/>
		<path d="m120-47.847c3e-3 -0.0088 0.0476-0.17745-0.10795-0.18415-0.10089 0-1.1342 0.53658-2.0193 1.0146-0.0617-0.07126-1.2319-1.4277-1.3875-1.5667-0.10477-0.09243-0.15875-0.14146-0.2413-0.14146-0.0476 0.0021-0.13652 0.04904-0.23812 0.14146-0.15558 0.13899-1.3289 1.4954-1.3906 1.5667-0.86395-0.46814-1.8842-1.0156-2.0115-1.0156-0.12524 0.04163-0.10442 0.17357-0.10301 0.18062 0.13335 1.0756 0.48577 2.1597 0.7366 2.4204 0.1785 0.18697 0.3235 0.19297 0.34114 0.19297h5.3326c0.0699 7.05e-4 0.22119-0.01552 0.3429-0.19297 0.14605-0.21802 0.55562-1.2506 0.74612-2.4158m-3.7465-3.2307c3.3115 0 5.9976 1.8994 5.9976 4.2432 0 2.3439-2.686 4.2432-5.9976 4.2432-3.315 0-6.0008-1.8994-6.0008-4.2432 0-2.3439 2.6857-4.2432 6.0008-4.2432" fill="#3dba77"/>
		<path d="m122.26-46.834v3.5355c0 0.02681-3.5e-4 0.05362-1e-3 0.08008v-3.5355c7e-4 -0.02681 1e-3 -0.05327 1e-3 -0.08008" fill="#236244"/>
		<path d="m122.25-46.754v3.5355c-6e-3 0.2039-0.031 0.40428-0.0759 0.60043v-3.5355c0.0448-0.19614 0.0702-0.39652 0.0759-0.60043" fill="#236547"/>
		<path d="m122.18-46.154v3.5355c-0.0512 0.22507-0.12735 0.44379-0.22683 0.65546v-3.5355c0.0995-0.21167 0.17568-0.43039 0.22683-0.65546" fill="#24694a"/>
		<path d="m121.95-45.498v3.5355c-0.1464 0.31256-0.3429 0.60925-0.58244 0.88477v-3.5355c0.23954-0.27552 0.43604-0.57221 0.58244-0.88477" fill="#266e4d"/>
		<path d="m121.37-44.613v3.5355c-0.43039 0.49424-0.99942 0.92146-1.669 1.2541v-3.5355c0.66957-0.33267 1.2386-0.75988 1.669-1.2541" fill="#27714f"/>
		<path d="m119.7-43.359v3.5355c-0.37747 0.18732-0.78669 0.34502-1.2213 0.46743v-3.5355c0.43463-0.12241 0.84385-0.28011 1.2213-0.46743" fill="#266e4d"/>
		<path d="m118.48-42.892v3.5355c-0.29351 0.0829-0.59831 0.14993-0.91264 0.19932v-3.5355c0.31433-0.04974 0.61913-0.11642 0.91264-0.19932" fill="#24694a"/>
		<path d="m117.57-42.692v3.5355c-0.27305 0.04304-0.55351 0.07302-0.83961 0.08855v-3.5355c0.2861-0.01552 0.56656-0.04551 0.83961-0.08855" fill="#236547"/>
		<path d="m116.73-42.604v3.5355c-0.15452 0.0085-0.31115 0.0127-0.46884 0.0127-0.12383 0-0.24659-0.0025-0.36865-0.0078v-3.5355c0.12206 0.0049 0.24482 0.0078 0.36865 0.0078 0.15769 0 0.31432-0.0042 0.46884-0.0127" fill="#236244"/>
		<path d="m115.89-42.599v3.5355c-0.29492-0.0127-0.5842-0.04022-0.86607-0.08185v-3.5355c0.28187 0.04163 0.57115 0.06914 0.86607 0.08184" fill="#205d41"/>
		<path d="m115.02-42.681v3.5355c-0.33831-0.05009-0.6664-0.1203-0.98107-0.20849v-3.5355c0.31468 0.0882 0.64276 0.1584 0.98107 0.20849" fill="#1f5a3e"/>
		<path d="m114.04-42.89v3.5355c-2.2176-0.62336-3.785-2.1541-3.785-3.9448v-3.5355c0 1.7907 1.5674 3.3214 3.785 3.9448" fill="#1e553c"/>
	</g>
</svg>
