<svg width="12.002mm" height="12.022mm" version="1.1" viewBox="0 0 12.002 12.022" xmlns="http://www.w3.org/2000/svg">
	<g transform="translate(-195.54 -224.27)">
		<path d="m202.06 227.58v3.5352c0-0.9966-1.1652-1.9576-1.3148-2.0775v-3.5355c0.14958 0.11994 1.3148 1.0813 1.3148 2.0779" fill="#7b161a"/>
		<path d="m200.95 225.99v3.5352c0 8e-3 0 0.0166-3.5e-4 0.025v-3.5355c3.5e-4 -8e-3 3.5e-4 -0.0166 3.5e-4 -0.0247" fill="#8d181d"/>
		<path d="m200.94 226.01v3.5352c-2e-3 0.0667-0.0106 0.1404-0.0293 0.22119v-3.5352c0.0187-0.0815 0.0275-0.15487 0.0293-0.22119" fill="#92191e"/>
		<path d="m200.92 226.24v3.5352c-0.024 0.10548-0.0646 0.22401-0.12629 0.35595v-3.5355c0.0617-0.13194 0.1023-0.25012 0.12629-0.3556" fill="#981a1f"/>
		<path d="m200.79 226.59v3.5355c-0.0967 0.20532-0.24553 0.4445-0.46778 0.72037v-3.5355c0.22225-0.27587 0.37112-0.5147 0.46778-0.72037" fill="#9f1b20"/>
		<path d="m202.57 226.84v3.5355c0 6e-3 -3.6e-4 0.0116-3.6e-4 0.0169v-3.5355c0-6e-3 3.6e-4 -0.0109 3.6e-4 -0.0169" fill="#8d181d"/>
		<path d="m202.57 226.86v3.5355c-1e-3 0.0473-8e-3 0.0956-0.0194 0.14464v-3.5359c0.0113-0.0487 0.018-0.097 0.0194-0.14429" fill="#92191e"/>
		<path d="m202.55 227v3.5355c-0.0187 0.0808-0.0494 0.16263-0.0864 0.24236v-3.5355c0.037-0.0797 0.0677-0.16157 0.0864-0.24236" fill="#981a1f"/>
		<path d="m202.47 227.25v3.5352c-0.1203 0.25611-0.31044 0.48965-0.39934 0.59196v-3.5352c0.0889-0.1023 0.27904-0.33584 0.39934-0.59196" fill="#9f1b20"/>
		<path d="m202.07 227.84v3.5352c-0.0258 0.03-0.043 0.0487-0.0476 0.0536v-3.5355c5e-3 -5e-3 0.0219-0.0236 0.0476-0.0533" fill="#a41b21"/>
		<path d="m203.77 229.26v3.5352c-0.0159-1.4256-1.1381-2.3872-1.197-2.438v-3.5352c0.0589 0.0505 1.1811 1.0125 1.197 2.438" fill="#7b161a"/>
		<path d="m200.32 227.31v3.5355c-0.40464 0.50341-0.64911 0.90875-0.79587 1.2217v-3.5352c0.14676-0.31326 0.39123-0.71861 0.79587-1.222" fill="#9f1b20"/>
		<path d="m199.53 228.53v3.5352c-0.0998 0.21343-0.15451 0.38347-0.18415 0.51329v-3.5359c0.0296-0.12912 0.0843-0.29951 0.18415-0.51259" fill="#981a1f"/>
		<path d="m199.34 229.05v3.5355c-0.0236 0.10477-0.031 0.18274-0.0325 0.23495v-3.5355c1e-3 -0.0519 9e-3 -0.12982 0.0325-0.23495" fill="#92191e"/>
		<path d="m199.31 229.28v3.5355c-3.5e-4 7e-3 -3.5e-4 0.013-3.5e-4 0.0187v-3.5355c0-6e-3 0-0.012 3.5e-4 -0.0187" fill="#8d181d"/>
		<path d="m207.54 228.51v3.5352c0 0.0272-3.5e-4 0.054-1e-3 0.0804v-3.5355c7.1e-4 -0.0268 1e-3 -0.0536 1e-3 -0.0801" fill="#8d181d"/>
		<path d="m207.54 228.59v3.5355c-6e-3 0.20426-0.031 0.40463-0.0759 0.60078v-3.5359c0.0448-0.19615 0.0702-0.39617 0.0759-0.60043" fill="#92191e"/>
		<path d="m207.46 229.19v3.5355c-0.0515 0.22472-0.12735 0.44379-0.22683 0.65546v-3.5355c0.0995-0.21131 0.17533-0.43039 0.22683-0.65546" fill="#981a1f"/>
		<path d="m207.24 229.85v3.5352c-0.1464 0.31291-0.3429 0.60924-0.58244 0.88476v-3.5352c0.23954-0.27552 0.43604-0.57221 0.58244-0.88477" fill="#9f1b20"/>
		<path d="m206.66 230.73v3.5352c-0.43004 0.49424-0.99942 0.92145-1.669 1.2541v-3.5355c0.66957-0.33267 1.239-0.75988 1.669-1.2538" fill="#a41b21"/>
		<path d="m204.99 231.99v3.5355c-0.37747 0.18768-0.7867 0.34502-1.2217 0.46813v-3.5359c0.43497-0.12241 0.8442-0.2801 1.2217-0.46778" fill="#9f1b20"/>
		<path d="m203.76 232.46v3.5355c-0.29386 0.0829-0.59866 0.14993-0.91334 0.19932v-3.5355c0.31468-0.0494 0.61948-0.11642 0.91334-0.19932" fill="#981a1f"/>
		<path d="m202.85 232.65v3.5352c-0.27376 0.0434-0.55457 0.0734-0.84102 0.0889v-3.5355c0.28645-0.0155 0.56726-0.0455 0.84102-0.0885" fill="#92191e"/>
		<path d="m202.01 232.74v3.5355c-0.15487 8e-3 -0.31186 0.013-0.4699 0.013-0.12383 0-0.24624-3e-3 -0.3683-8e-3v-3.5355c0.12206 5e-3 0.24447 8e-3 0.3683 8e-3 0.15804 0 0.31503-4e-3 0.4699-0.0127" fill="#8d181d"/>
		<path d="m201.17 232.75v3.5355c-0.29528-0.0127-0.5842-0.0402-0.86643-0.0819v-3.5355c0.28223 0.0416 0.57115 0.0695 0.86643 0.0818" fill="#87181c"/>
		<path d="m200.31 232.67v3.5355c-0.33831-0.0497-0.66639-0.11995-0.98072-0.20849v-3.5355c0.31433 0.0886 0.64241 0.1584 0.98072 0.20849" fill="#81171b"/>
		<path d="m199.32 232.46v3.5352c-2.2176-0.62301-3.785-2.1541-3.785-3.9444v-3.5355c0 1.7907 1.5674 3.3214 3.785 3.9448" fill="#7b161a"/>
		<path d="m201.7 230.95c0.89218-0.0222 2.0828-0.26494 2.0669-1.688-0.0159-1.4256-1.1377-2.3876-1.1966-2.438 0.0159 0.45579-0.52458 1.0379-0.5528 1.0686 0.29845-1.1003-1.1077-2.261-1.2732-2.3932 0.0956 0.0804 0.57467 0.57009-0.42545 1.8136-1.1014 1.3695-1.0142 2.0137-1.0093 2.0479 0.25047 1.4926 1.8623 1.5917 2.2878 1.5917 0.0656 0 0.1009-2e-3 0.10266-2e-3m-0.16192-6.6791c3.315 0 6.0011 1.8994 6.0011 4.2436 0 2.3435-2.686 4.2429-6.0011 4.2429-3.3144 0-6.0008-1.8994-6.0008-4.2429 0-2.3442 2.6864-4.2436 6.0008-4.2436" fill="#ec1e24"/>
	</g>
</svg>
