<svg width="12.002mm" height="12.022mm" version="1.1" viewBox="0 0 12.002 12.022" xmlns="http://www.w3.org/2000/svg">
	<g transform="translate(-39.054 40.618)">
		<path d="m44.76-33.425h-2.1657v-3.5355h2.1657z" fill="#946619"/>
		<path d="m48.637-37.8v3.5355c-0.0028-3.6e-4 -0.03563-5e-3 -0.09596-7e-3v-3.5355c0.06033 2e-3 0.09313 7e-3 0.09596 7e-3" fill="#805917"/>
		<path d="m48.54-37.807v3.5355c-0.02716-1e-3 -0.05997-2e-3 -0.09772-2e-3 -0.04269 0-0.09208 1e-3 -0.14676 4e-3v-3.5355c0.05468-3e-3 0.10407-4e-3 0.14676-4e-3 0.03775 0 0.07055 1e-3 0.09772 2e-3" fill="#855c18"/>
		<path d="m48.296-37.805v3.5355c-0.08855 5e-3 -0.19191 0.0145-0.30656 0.0328v-3.5355c0.11465-0.018 0.21802-0.0279 0.30656-0.0328" fill="#8a6018"/>
		<path d="m47.989-37.773v3.5355c-0.11501 0.018-0.2413 0.0441-0.37536 0.0822v-3.5355c0.13406-0.0381 0.26035-0.0642 0.37536-0.0822" fill="#906318"/>
		<path d="m47.614-37.691v3.5355c-0.1778 0.0501-0.36971 0.1203-0.56797 0.21837v-3.5355c0.19826-0.0981 0.39017-0.16828 0.56797-0.21837" fill="#966719"/>
		<path d="m47.046-37.472v3.5355c-0.03598 0.0176-0.07161 0.0363-0.10795 0.0557-0.31538 0.17004-0.52917 0.35313-0.6791 0.52599v-3.5355c0.14993-0.17286 0.36371-0.35595 0.6791-0.52599 0.03634-0.0194 0.07197-0.0381 0.10795-0.0557" fill="#9a6b19"/>
		<path d="m46.258-36.89v3.5355c-0.27587 0.3175-0.33761 0.59972-0.42439 0.69921v-3.5355c0.08678-0.0995 0.14852-0.38171 0.42439-0.69921" fill="#966719"/>
		<path d="m45.834-36.191v3.5355c-0.0014 2e-3 -0.0028 3e-3 -0.0042 5e-3 -0.02716 0.0286-0.05927 0.0508-0.09349 0.0681v-3.5355c0.03422-0.0173 0.06632-0.0395 0.09349-0.0681 0.0014-2e-3 0.0028-3e-3 0.0042-5e-3" fill="#9a6b19"/>
		<path d="m45.736-36.118v3.5355c-0.02293 0.0113-0.04727 0.0205-0.07126 0.0272v-3.5355c0.02399-7e-3 0.04833-0.0159 0.07126-0.0272" fill="#966719"/>
		<path d="m45.665-36.091v3.5355c-0.01799 5e-3 -0.03634 9e-3 -0.05362 0.0116v-3.5355c0.01729-3e-3 0.03563-6e-3 0.05362-0.0116" fill="#906318"/>
		<path d="m45.611-36.079v3.5355c-0.01623 2e-3 -0.0321 4e-3 -0.04762 5e-3v-3.5359c0.01552-7.1e-4 0.0314-2e-3 0.04762-5e-3" fill="#8a6018"/>
		<path d="m45.564-36.074v3.5355c-0.0081 3.5e-4 -0.01658 7e-4 -0.02434 7e-4 -0.0064 0-0.01235 0-0.01834-3.5e-4v-3.5355c6e-3 3.6e-4 0.01199 3.6e-4 0.01834 3.6e-4 0.0078 0 0.01623-3.6e-4 0.02434-7.1e-4" fill="#855c18"/>
		<path d="m45.521-36.074v3.5355c-0.01305-3.5e-4 -0.02575-2e-3 -0.03775-4e-3v-3.5355c0.01199 2e-3 0.02469 3e-3 0.03775 4e-3" fill="#805917"/>
		<path d="m45.483-36.078v3.5355c-0.01199-2e-3 -0.02328-4e-3 -0.03387-7e-3v-3.5355c0.01058 3e-3 0.02187 5e-3 0.03387 7e-3" fill="#7b5517"/>
		<path d="m45.449-36.085v3.5355c-0.02822-8e-3 -0.04904-0.0198-0.0575-0.0342-0.0381-0.0607 0.01905-0.30762-0.63182-0.84173v-3.5355c0.65088 0.53411 0.59372 0.78105 0.63182 0.84173 0.0085 0.0145 0.02928 0.0265 0.0575 0.0342" fill="#765216"/>
		<path d="m42.594-36.961v3.5355c-0.01129 6e-3 -0.10654 0.0582-0.21908 0.18803v-3.5355c0.11254-0.12982 0.20779-0.18168 0.21908-0.18803" fill="#9a6b19"/>
		<path d="m42.375-36.773v3.5355c-0.06809 0.0787-0.14288 0.18521-0.2099 0.32773v-3.5355c0.06703-0.14253 0.14182-0.24907 0.2099-0.32773" fill="#966719"/>
		<path d="m42.165-36.445v3.5355c-0.05115 0.10936-0.09737 0.23918-0.13264 0.39335v-3.5355c0.03528-0.15417 0.08149-0.28399 0.13264-0.39335" fill="#906318"/>
		<path d="m42.033-36.052v3.5355c-0.02928 0.12982-0.05115 0.27693-0.06068 0.44273-7.05e-4 0.0127-0.0011 0.0251-0.0014 0.0374v-3.5355c3.53e-4 -0.0123 7.06e-4 -0.0247 0.0014-0.0374 0.0095-0.1658 0.0314-0.31291 0.06068-0.44273" fill="#8a6018"/>
		<path d="m41.971-35.572v3.5355c-3.53e-4 0.012-7.06e-4 0.0233-7.06e-4 0.0353v-3.5355c0-0.012 3.53e-4 -0.0233 7.06e-4 -0.0353" fill="#855c18"/>
		<path d="m51.056-36.375v3.5355c0 0.0268-3.53e-4 0.0533-0.0011 0.0801v-3.5355c7.05e-4 -0.0268 0.0011-0.0533 0.0011-0.0801" fill="#855c18"/>
		<path d="m51.055-36.295v3.5355c-0.0053 0.20391-0.03104 0.40429-0.07585 0.60043v-3.5355c0.0448-0.19614 0.07055-0.39652 0.07585-0.60043" fill="#8a6018"/>
		<path d="m50.979-35.694v3.5355c-0.05115 0.22507-0.12735 0.44379-0.22648 0.65546v-3.5355c0.09913-0.21166 0.17533-0.43039 0.22648-0.65546" fill="#906318"/>
		<path d="m50.753-35.039v3.5355c-0.14676 0.31256-0.34325 0.6089-0.58279 0.88442v-3.5355c0.23954-0.27552 0.43603-0.57185 0.58279-0.88442" fill="#966719"/>
		<path d="m50.17-34.154v3.5355c-0.43004 0.49424-0.99907 0.9211-1.6686 1.2541v-3.5355c0.66957-0.33302 1.2386-0.75988 1.6686-1.2541" fill="#9a6b19"/>
		<path d="m48.501-32.9v3.5355c-0.37747 0.18733-0.78705 0.34502-1.2217 0.46778v-3.5355c0.43462-0.12277 0.8442-0.28046 1.2217-0.46779" fill="#966719"/>
		<path d="m47.279-32.432v3.5355c-0.29386 0.0829-0.59902 0.14993-0.91369 0.19932v-3.5355c0.31468-0.0494 0.61983-0.11642 0.91369-0.19932" fill="#906318"/>
		<path d="m46.366-32.233v3.5355c-0.2734 0.043-0.55421 0.073-0.84102 0.0886v-3.5355c0.28681-0.0155 0.56762-0.0455 0.84102-0.0885" fill="#8a6018"/>
		<path d="m45.525-32.144v3.5355c-0.15452 8e-3 -0.3115 0.0131-0.46955 0.0131-0.12382 0-0.24659-3e-3 -0.36865-8e-3v-3.5355c0.12206 5e-3 0.24483 8e-3 0.36865 8e-3 0.15804 0 0.31503-5e-3 0.46955-0.0131" fill="#855c18"/>
		<path d="m44.686-32.139v3.5355c-0.29492-0.0127-0.5842-0.0402-0.86607-0.0818v-3.5355c0.28187 0.0416 0.57115 0.0691 0.86607 0.0818" fill="#805917"/>
		<path d="m43.82-32.221v3.5355c-0.33831-0.0501-0.6664-0.1203-0.98108-0.20849v-3.5355c0.31468 0.0882 0.64276 0.1584 0.98108 0.20849" fill="#7b5517"/>
		<path d="m42.839-32.43v3.5355c-2.2176-0.62336-3.785-2.1541-3.785-3.9448v-3.5355c0 1.7907 1.5674 3.3214 3.785 3.9448" fill="#765216"/>
		<path d="m48.637-37.67v-0.13017c-0.0039-3.5e-4 -0.07056-9e-3 -0.19403-9e-3 -0.28998 0-0.87171 0.0511-1.5046 0.39299-0.90523 0.48719-0.97155 1.0844-1.1081 1.2305-0.07761 0.0815-0.19614 0.11219-0.29069 0.11219-0.07232 0-0.13088-0.0176-0.14746-0.0452-0.03845-0.0603 0.0187-0.30726-0.63182-0.84172h-2.1657c-0.02787 0.0155-0.56198 0.30762-0.6223 1.3515-0.05715 1.0442 1.1176 1.4079 2.1975 1.4079 1.0763 0 1.797-0.39299 2.3301-1.0372 0.5334-0.64664 0.65088-1.4506 1.1652-1.9713 0.41487-0.42193 0.79234-0.4625 0.92322-0.4625 0.0314 0 0.04762 2e-3 0.04868 2e-3m-3.5814-2.9474c3.3143 0 6.0004 1.899 6.0004 4.2428 0 2.3439-2.686 4.2432-6.0004 4.2432-3.3151 0-6.0008-1.8994-6.0008-4.2432s2.6857-4.2428 6.0008-4.2428" fill="#f9a71d"/>
	</g>
</svg>
