<?xml version="1.0" encoding="UTF-8" standalone="no"?>
<!-- Created with Inkscape (http://www.inkscape.org/) -->

<svg
   width="15.002231mm"
   height="16.187799mm"
   viewBox="0 0 15.00223 16.1878"
   version="1.1"
   id="svg5"
   xmlns="http://www.w3.org/2000/svg"
   xmlns:svg="http://www.w3.org/2000/svg">
  <defs
     id="defs2">
    <clipPath
       clipPathUnits="userSpaceOnUse"
       id="clipPath900">
      <path
         d="M 0,841.89 H 595.276 V 0 H 0 Z"
         id="path898" />
    </clipPath>
    <clipPath
       clipPathUnits="userSpaceOnUse"
       id="clipPath930">
      <path
         d="m 174.101,792.692 c -2.565,-1.381 -2.754,-3.073 -3.141,-3.486 v 0 c -0.219,-0.233 -0.555,-0.32 -0.823,-0.32 v 0 c -0.205,0 -0.372,0.051 -0.419,0.129 v 0 c -0.108,0.171 0.054,0.871 -1.791,2.386 v 0 -10.023 c 1.845,-1.515 1.683,-2.215 1.791,-2.387 v 0 c 0.047,-0.076 0.214,-0.126 0.419,-0.126 v 0 c 0.268,0 0.604,0.087 0.823,0.318 v 0 c 0.387,0.414 0.576,2.107 3.141,3.488 v 0 c 1.795,0.969 3.444,1.114 4.266,1.114 v 0 c 0.35,0 0.539,-0.025 0.55,-0.026 v 0 10.022 c -0.011,0.001 -0.2,0.025 -0.55,0.025 v 0 c -0.822,0 -2.471,-0.144 -4.266,-1.114"
         id="path928" />
    </clipPath>
    <clipPath
       clipPathUnits="userSpaceOnUse"
       id="clipPath998">
      <path
         d="m 160.025,787.569 c -0.003,-0.069 -0.006,-0.137 -0.006,-0.205 v 0 -10.022 c 0,0.067 0.003,0.137 0.006,0.206 v 0 c 0.171,2.958 1.685,3.787 1.764,3.83 v 0 10.023 c -0.079,-0.044 -1.593,-0.872 -1.764,-3.832"
         id="path996" />
    </clipPath>
    <clipPath
       clipPathUnits="userSpaceOnUse"
       id="clipPath1026">
      <path
         d="m 168.764,777.712 c -9.396,0 -17.01,5.383 -17.01,12.027 v 0 -10.021 c 0,-6.645 7.614,-12.029 17.01,-12.029 v 0 c 9.396,0 17.01,5.384 17.01,12.029 v 0 10.021 c 0,-6.644 -7.614,-12.027 -17.01,-12.027"
         id="path1024" />
    </clipPath>
    <clipPath
       clipPathUnits="userSpaceOnUse"
       id="clipPath1082">
      <path
         d="M 0,841.89 H 595.276 V 0 H 0 Z"
         id="path1080" />
    </clipPath>
    <clipPath
       clipPathUnits="userSpaceOnUse"
       id="clipPath1104">
      <path
         d="M 0,841.89 H 595.276 V 0 H 0 Z"
         id="path1102" />
    </clipPath>
    <clipPath
       clipPathUnits="userSpaceOnUse"
       id="clipPath1126">
      <path
         d="M 0,841.89 H 595.276 V 0 H 0 Z"
         id="path1124" />
    </clipPath>
    <clipPath
       clipPathUnits="userSpaceOnUse"
       id="clipPath1146">
      <path
         d="M 0,841.89 H 595.276 V 0 H 0 Z"
         id="path1144" />
    </clipPath>
    <clipPath
       clipPathUnits="userSpaceOnUse"
       id="clipPath1180">
      <path
         d="m 167.937,296.757 c -0.036,10e-4 -0.072,10e-4 -0.108,10e-4 v 0 c -6.93,0 -9.558,-3.642 -9.603,-6.167 v 0 -10.022 c 0.045,2.526 2.673,6.167 9.603,6.167 v 0 h 0.108 0.109 c 6.931,0 9.567,-3.641 9.602,-6.167 v 0 10.022 c -0.035,2.526 -2.671,6.167 -9.602,6.167 v 0 c -0.036,0 -0.073,0 -0.109,-10e-4"
         id="path1178" />
    </clipPath>
    <clipPath
       clipPathUnits="userSpaceOnUse"
       id="clipPath1236">
      <path
         d="m 174.166,284.838 v -10.022 c 0.152,0.015 0.393,0.029 0.658,0.029 v 0 10.021 c -0.265,0 -0.506,-0.012 -0.658,-0.028"
         id="path1234" />
    </clipPath>
    <clipPath
       clipPathUnits="userSpaceOnUse"
       id="clipPath1252">
      <path
         d="m 159.513,284.431 v -10.023 c -0.005,0.349 0.859,0.437 1.545,0.437 v 0 c 0.264,0 0.502,-0.014 0.652,-0.029 v 0 10.022 c -0.15,0.016 -0.388,0.028 -0.652,0.028 v 0 c -0.686,0 -1.55,-0.086 -1.545,-0.435"
         id="path1250" />
    </clipPath>
    <clipPath
       clipPathUnits="userSpaceOnUse"
       id="clipPath1300">
      <path
         d="m 174.824,274.845 c 0.689,0 1.553,-0.088 1.547,-0.437 v 0 10.023 c 0.006,0.349 -0.858,0.435 -1.547,0.435 v 0 z"
         id="path1298" />
    </clipPath>
    <clipPath
       clipPathUnits="userSpaceOnUse"
       id="clipPath1324">
      <path
         d="m 162.869,279.207 c 0,-2.581 1.839,-5.039 1.955,-5.193 v 0 10.021 c -0.116,0.154 -1.955,2.612 -1.955,5.194 v 0 z"
         id="path1322" />
    </clipPath>
    <clipPath
       clipPathUnits="userSpaceOnUse"
       id="clipPath1336">
      <path
         d="m 171.051,284.035 v -10.021 c 0.101,0.161 1.799,2.88 1.799,5.669 v 0 10.023 c 0,-2.79 -1.698,-5.509 -1.799,-5.671"
         id="path1334" />
    </clipPath>
    <clipPath
       clipPathUnits="userSpaceOnUse"
       id="clipPath1360">
      <path
         d="m 167.937,277.665 c -9.395,0 -17.01,5.384 -17.01,12.029 v 0 -10.023 c 0,-6.643 7.615,-12.027 17.01,-12.027 v 0 c 9.397,0 17.011,5.384 17.011,12.027 v 0 10.023 c 0,-6.645 -7.614,-12.029 -17.011,-12.029"
         id="path1358" />
    </clipPath>
    <clipPath
       clipPathUnits="userSpaceOnUse"
       id="clipPath1416">
      <path
         d="M 0,841.89 H 595.276 V 0 H 0 Z"
         id="path1414" />
    </clipPath>
    <clipPath
       clipPathUnits="userSpaceOnUse"
       id="clipPath1456">
      <path
         d="m 167.24,628.447 v -10.022 c 0.288,0.261 0.54,0.394 0.675,0.401 v 0 10.022 c -0.135,-0.006 -0.387,-0.14 -0.675,-0.401"
         id="path1454" />
    </clipPath>
    <clipPath
       clipPathUnits="userSpaceOnUse"
       id="clipPath1482">
      <path
         d="m 178.257,616.859 c 0.274,-0.012 0.328,-0.201 0.328,-0.348 v 0 10.022 c 0,0.147 -0.054,0.337 -0.328,0.348 v 0 z"
         id="path1480" />
    </clipPath>
    <clipPath
       clipPathUnits="userSpaceOnUse"
       id="clipPath1502">
      <path
         d="M 157.298,626.452 V 616.43 c 0,0.121 0.038,0.346 0.298,0.433 v 0 10.021 c -0.26,-0.086 -0.298,-0.311 -0.298,-0.432"
         id="path1500" />
    </clipPath>
    <clipPath
       clipPathUnits="userSpaceOnUse"
       id="clipPath1534">
      <path
         d="m 167.915,618.826 c 0.235,0 0.388,-0.14 0.685,-0.401 v 0 c 0.44,-0.395 3.757,-4.24 3.932,-4.442 v 0 10.022 c -0.175,0.202 -3.492,4.047 -3.932,4.442 v 0 c -0.297,0.261 -0.45,0.401 -0.685,0.401 v 0 z"
         id="path1532" />
    </clipPath>
    <clipPath
       clipPathUnits="userSpaceOnUse"
       id="clipPath1558">
      <path
         d="m 172.532,624.005 v -10.022 c 2.51,1.356 5.438,2.876 5.725,2.876 v 0 10.022 c -0.287,0 -3.215,-1.521 -5.725,-2.876"
         id="path1556" />
    </clipPath>
    <clipPath
       clipPathUnits="userSpaceOnUse"
       id="clipPath1586">
      <path
         d="m 157.596,616.863 c 0.361,0 3.254,-1.552 5.703,-2.88 v 0 10.022 c -2.449,1.328 -5.342,2.879 -5.703,2.879 v 0 z"
         id="path1584" />
    </clipPath>
    <clipPath
       clipPathUnits="userSpaceOnUse"
       id="clipPath1610">
      <path
         d="m 163.299,624.005 v -10.022 c 0.174,0.202 3.501,4.047 3.941,4.442 v 0 10.022 c -0.44,-0.395 -3.767,-4.24 -3.941,-4.442"
         id="path1608" />
    </clipPath>
    <clipPath
       clipPathUnits="userSpaceOnUse"
       id="clipPath1626">
      <path
         d="M 0,841.89 H 595.276 V 0 H 0 Z"
         id="path1624" />
    </clipPath>
    <clipPath
       clipPathUnits="userSpaceOnUse"
       id="clipPath1638">
      <path
         d="m 167.943,611.462 c -9.397,0 -17.01,5.384 -17.01,12.027 v 0 -10.022 c 0,-6.644 7.613,-12.028 17.01,-12.028 v 0 c 9.386,0 17,5.384 17,12.028 v 0 10.022 c 0,-6.643 -7.614,-12.027 -17,-12.027"
         id="path1636" />
    </clipPath>
    <clipPath
       clipPathUnits="userSpaceOnUse"
       id="clipPath1702">
      <path
         d="M 0,841.89 H 595.276 V 0 H 0 Z"
         id="path1700" />
    </clipPath>
    <clipPath
       clipPathUnits="userSpaceOnUse"
       id="clipPath1722">
      <path
         d="M 0,841.89 H 595.276 V 0 H 0 Z"
         id="path1720" />
    </clipPath>
    <clipPath
       clipPathUnits="userSpaceOnUse"
       id="clipPath1766">
      <path
         d="M 0,841.89 H 595.276 V 0 H 0 Z"
         id="path1764" />
    </clipPath>
    <clipPath
       clipPathUnits="userSpaceOnUse"
       id="clipPath1794">
      <path
         d="M 0,841.89 H 595.276 V 0 H 0 Z"
         id="path1792" />
    </clipPath>
    <clipPath
       clipPathUnits="userSpaceOnUse"
       id="clipPath1808">
      <path
         d="m 165.687,122.659 c 0.424,-0.34 3.727,-3.064 3.727,-5.889 v 0 10.021 c 0,2.825 -3.303,5.549 -3.727,5.89 v 0 z"
         id="path1806" />
    </clipPath>
    <clipPath
       clipPathUnits="userSpaceOnUse"
       id="clipPath1820">
      <path
         d="m 164.481,127.539 v -10.022 c 1.384,1.72 1.769,2.932 1.769,3.748 v 0 10.022 c 0,-0.816 -0.385,-2.028 -1.769,-3.748"
         id="path1818" />
    </clipPath>
    <clipPath
       clipPathUnits="userSpaceOnUse"
       id="clipPath1844">
      <path
         d="m 169.297,125.896 v -10.021 c 0.079,0.086 1.567,1.689 1.567,2.973 v 0 10.022 c 0,-1.283 -1.488,-2.887 -1.567,-2.974"
         id="path1842" />
    </clipPath>
    <clipPath
       clipPathUnits="userSpaceOnUse"
       id="clipPath1872">
      <path
         d="m 170.863,118.904 c 0.168,-0.143 3.348,-2.87 3.392,-6.911 v 0 10.022 c -0.044,4.041 -3.224,6.767 -3.392,6.911 v 0 z"
         id="path1870" />
    </clipPath>
    <clipPath
       clipPathUnits="userSpaceOnUse"
       id="clipPath1884">
      <path
         d="m 161.61,121.903 v -10.022 c 0,0.538 0.229,2.351 2.871,5.636 v 0 10.022 c -2.642,-3.285 -2.871,-5.098 -2.871,-5.636"
         id="path1882" />
    </clipPath>
    <clipPath
       clipPathUnits="userSpaceOnUse"
       id="clipPath1908">
      <path
         d="m 167.937,112.107 c -9.395,0 -17.01,5.384 -17.01,12.027 v 0 -10.021 c 0,-6.645 7.615,-12.029 17.01,-12.029 v 0 c 9.397,0 17.011,5.384 17.011,12.029 v 0 10.021 c 0,-6.643 -7.614,-12.027 -17.011,-12.027"
         id="path1906" />
    </clipPath>
    <clipPath
       clipPathUnits="userSpaceOnUse"
       id="clipPath1964">
      <path
         d="M 0,841.89 H 595.276 V 0 H 0 Z"
         id="path1962" />
    </clipPath>
    <clipPath
       clipPathUnits="userSpaceOnUse"
       id="clipPath2004">
      <path
         d="m 178.868,451.716 c 0.044,0 0.696,0 0.696,-0.848 v 0 10.606 c 0,0.849 -0.652,0.849 -0.696,0.849 v 0 z"
         id="path2002" />
    </clipPath>
    <clipPath
       clipPathUnits="userSpaceOnUse"
       id="clipPath2028">
      <path
         d="m 156.271,461.466 v -10.607 c 0,0.857 0.656,0.857 0.701,0.857 v 0 10.607 c -0.045,0 -0.701,0 -0.701,-0.857"
         id="path2026" />
    </clipPath>
    <clipPath
       clipPathUnits="userSpaceOnUse"
       id="clipPath2072">
      <path
         d="m 156.798,451.426 c 0,-0.296 0.554,-0.726 3.63,-0.843 v 0 10.607 c -3.076,0.117 -3.63,0.547 -3.63,0.843 v 0 z"
         id="path2070" />
    </clipPath>
    <clipPath
       clipPathUnits="userSpaceOnUse"
       id="clipPath2096">
      <path
         d="m 160.428,450.583 c 3.653,-0.133 6.048,-1.935 6.93,-2.73 v 0 10.607 c -0.882,0.795 -3.277,2.596 -6.93,2.73 v 0 z"
         id="path2094" />
    </clipPath>
    <clipPath
       clipPathUnits="userSpaceOnUse"
       id="clipPath2120">
      <path
         d="m 175.412,461.19 c -3.915,-0.146 -6.389,-2.202 -7.1,-2.883 v 0 -10.606 c 0.711,0.681 3.185,2.735 7.1,2.882 v 0 c 3.075,0.117 3.63,0.547 3.63,0.843 v 0 10.607 c 0,-0.296 -0.555,-0.726 -3.63,-0.843"
         id="path2118" />
    </clipPath>
    <clipPath
       clipPathUnits="userSpaceOnUse"
       id="clipPath2180">
      <path
         d="m 167.943,458.212 v -10.606 c 0.111,0 0.236,0.026 0.369,0.095 v 0 10.606 c -0.133,-0.068 -0.258,-0.095 -0.369,-0.095"
         id="path2178" />
    </clipPath>
    <clipPath
       clipPathUnits="userSpaceOnUse"
       id="clipPath2208">
      <path
         d="m 167.358,447.853 c 0.011,-0.012 0.235,-0.247 0.585,-0.247 v 0 10.606 c -0.35,0 -0.574,0.235 -0.585,0.248 v 0 z"
         id="path2206" />
    </clipPath>
    <clipPath
       clipPathUnits="userSpaceOnUse"
       id="clipPath2232">
      <path
         d="m 160.482,450.059 v -10.606 c 0.35,3.22 5.147,4.822 5.4,4.906 v 0 10.607 c -0.253,-0.084 -5.05,-1.686 -5.4,-4.907"
         id="path2230" />
    </clipPath>
    <clipPath
       clipPathUnits="userSpaceOnUse"
       id="clipPath2260">
      <path
         d="m 169.949,444.36 c 0.253,-0.085 5.049,-1.687 5.41,-4.907 v 0 10.606 c -0.361,3.221 -5.157,4.823 -5.41,4.907 v 0 z"
         id="path2258" />
    </clipPath>
    <clipPath
       clipPathUnits="userSpaceOnUse"
       id="clipPath2272">
      <path
         d="M 0,841.89 H 595.276 V 0 H 0 Z"
         id="path2270" />
    </clipPath>
    <clipPath
       clipPathUnits="userSpaceOnUse"
       id="clipPath2284">
      <path
         d="m 167.915,445.254 c -9.395,0 -17.01,5.384 -17.01,12.028 v 0 -10.606 c 0,-6.644 7.615,-12.028 17.01,-12.028 v 0 c 9.397,0 17.011,5.384 17.011,12.028 v 0 10.606 c 0,-6.644 -7.614,-12.028 -17.011,-12.028"
         id="path2282" />
    </clipPath>
    <clipPath
       clipPathUnits="userSpaceOnUse"
       id="clipPath2340">
      <path
         d="M 0,841.89 H 595.276 V 0 H 0 Z"
         id="path2338" />
    </clipPath>
    <clipPath
       clipPathUnits="userSpaceOnUse"
       id="clipPath2366">
      <path
         d="m 437.903,782.808 c -2.565,-1.38 -2.755,-3.073 -3.142,-3.486 v 0 c -0.219,-0.233 -0.551,-0.32 -0.82,-0.32 v 0 c -0.204,0 -0.371,0.051 -0.422,0.129 v 0 c -0.107,0.171 0.055,0.871 -1.791,2.386 v 0 -4.009 c 1.846,-1.515 1.684,-2.215 1.791,-2.387 v 0 c 0.051,-0.076 0.218,-0.127 0.422,-0.127 v 0 c 0.269,0 0.601,0.087 0.82,0.318 v 0 c 0.387,0.414 0.577,2.107 3.142,3.488 v 0 c 1.795,0.97 3.443,1.114 4.266,1.114 v 0 c 0.348,0 0.539,-0.024 0.549,-0.025 v 0 4.008 c -0.01,10e-4 -0.201,0.026 -0.549,0.026 v 0 c -0.823,0 -2.471,-0.144 -4.266,-1.115"
         id="path2364" />
    </clipPath>
    <clipPath
       clipPathUnits="userSpaceOnUse"
       id="clipPath2434">
      <path
         d="m 423.827,777.685 c -0.004,-0.069 -0.006,-0.137 -0.006,-0.205 v 0 -4.008 c 0,0.066 0.002,0.136 0.006,0.205 v 0 c 0.171,2.959 1.685,3.781 1.764,3.825 v 0 4.008 c -0.079,-0.043 -1.593,-0.865 -1.764,-3.825"
         id="path2432" />
    </clipPath>
    <clipPath
       clipPathUnits="userSpaceOnUse"
       id="clipPath2462">
      <path
         d="M 0,841.89 H 595.276 V 0 H 0 Z"
         id="path2460" />
    </clipPath>
    <clipPath
       clipPathUnits="userSpaceOnUse"
       id="clipPath2514">
      <path
         d="M 0,841.89 H 595.276 V 0 H 0 Z"
         id="path2512" />
    </clipPath>
    <clipPath
       clipPathUnits="userSpaceOnUse"
       id="clipPath2532">
      <path
         d="M 0,841.89 H 595.276 V 0 H 0 Z"
         id="path2530" />
    </clipPath>
    <clipPath
       clipPathUnits="userSpaceOnUse"
       id="clipPath2576">
      <path
         d="m 434.278,617.259 v -4.01 c 0.288,0.261 0.54,0.395 0.676,0.402 v 0 4.008 c -0.136,-0.006 -0.388,-0.14 -0.676,-0.4"
         id="path2574" />
    </clipPath>
    <clipPath
       clipPathUnits="userSpaceOnUse"
       id="clipPath2602">
      <path
         d="m 445.304,611.684 c 0.266,-0.012 0.319,-0.199 0.319,-0.345 v 0 4.008 c 0,0.147 -0.053,0.334 -0.319,0.346 v 0 z"
         id="path2600" />
    </clipPath>
    <clipPath
       clipPathUnits="userSpaceOnUse"
       id="clipPath2622">
      <path
         d="m 424.336,615.263 v -4.009 c 0,0.121 0.038,0.346 0.299,0.433 v 0 4.009 c -0.261,-0.086 -0.299,-0.312 -0.299,-0.433"
         id="path2620" />
    </clipPath>
    <clipPath
       clipPathUnits="userSpaceOnUse"
       id="clipPath2654">
      <path
         d="m 430.346,612.816 v -4.008 c 0.174,0.202 3.492,4.047 3.932,4.441 v 0 4.01 c -0.44,-0.395 -3.758,-4.24 -3.932,-4.443"
         id="path2652" />
    </clipPath>
    <clipPath
       clipPathUnits="userSpaceOnUse"
       id="clipPath2670">
      <path
         d="m 424.635,611.687 c 0.368,0 3.254,-1.552 5.711,-2.879 v 0 4.008 c -2.457,1.328 -5.343,2.88 -5.711,2.88 v 0 z"
         id="path2668" />
    </clipPath>
    <clipPath
       clipPathUnits="userSpaceOnUse"
       id="clipPath2694">
      <path
         d="m 439.57,612.816 v -4.008 c 2.51,1.356 5.439,2.876 5.734,2.876 v 0 4.009 c -0.295,0 -3.224,-1.52 -5.734,-2.877"
         id="path2692" />
    </clipPath>
    <clipPath
       clipPathUnits="userSpaceOnUse"
       id="clipPath2722">
      <path
         d="m 434.954,613.651 c 0.234,0 0.396,-0.141 0.684,-0.402 v 0 c 0.441,-0.394 3.758,-4.239 3.932,-4.441 v 0 4.008 c -0.174,0.203 -3.491,4.048 -3.932,4.443 v 0 c -0.288,0.26 -0.45,0.4 -0.684,0.4 v 0 z"
         id="path2720" />
    </clipPath>
    <clipPath
       clipPathUnits="userSpaceOnUse"
       id="clipPath2746">
      <path
         d="M 0,841.89 H 595.276 V 0 H 0 Z"
         id="path2744" />
    </clipPath>
    <clipPath
       clipPathUnits="userSpaceOnUse"
       id="clipPath2778">
      <path
         d="M 0,841.89 H 595.276 V 0 H 0 Z"
         id="path2776" />
    </clipPath>
    <clipPath
       clipPathUnits="userSpaceOnUse"
       id="clipPath2796">
      <path
         d="M 0,841.89 H 595.276 V 0 H 0 Z"
         id="path2794" />
    </clipPath>
    <clipPath
       clipPathUnits="userSpaceOnUse"
       id="clipPath2840">
      <path
         d="m 423.337,451.963 v -4.01 c 0,0.854 0.655,0.854 0.7,0.854 v 0 4.009 c -0.045,0 -0.7,0 -0.7,-0.853"
         id="path2838" />
    </clipPath>
    <clipPath
       clipPathUnits="userSpaceOnUse"
       id="clipPath2884">
      <path
         d="m 445.925,448.807 c 0.044,0 0.7,0 0.7,-0.854 v 0 4.01 c 0,0.853 -0.656,0.853 -0.7,0.853 v 0 z"
         id="path2882" />
    </clipPath>
    <clipPath
       clipPathUnits="userSpaceOnUse"
       id="clipPath2908">
      <path
         d="m 423.86,448.515 c 0,-0.295 0.556,-0.724 3.623,-0.841 v 0 4.009 c -3.067,0.117 -3.623,0.545 -3.623,0.841 v 0 z"
         id="path2906" />
    </clipPath>
    <clipPath
       clipPathUnits="userSpaceOnUse"
       id="clipPath2932">
      <path
         d="m 427.483,447.674 c 3.655,-0.133 6.058,-1.934 6.94,-2.723 v 0 4.009 c -0.882,0.789 -3.285,2.59 -6.94,2.723 v 0 z"
         id="path2930" />
    </clipPath>
    <clipPath
       clipPathUnits="userSpaceOnUse"
       id="clipPath2956">
      <path
         d="m 442.469,451.683 c -3.906,-0.14 -6.381,-2.195 -7.101,-2.876 v 0 -4.009 c 0.72,0.681 3.195,2.737 7.101,2.876 v 0 c 3.076,0.117 3.631,0.547 3.631,0.842 v 0 4.009 c 0,-0.296 -0.555,-0.725 -3.631,-0.842"
         id="path2954" />
    </clipPath>
    <clipPath
       clipPathUnits="userSpaceOnUse"
       id="clipPath3016">
      <path
         d="m 434.423,444.951 c 0.012,-0.013 0.235,-0.249 0.578,-0.249 v 0 4.008 c -0.343,0 -0.566,0.237 -0.578,0.25 v 0 z"
         id="path3014" />
    </clipPath>
    <clipPath
       clipPathUnits="userSpaceOnUse"
       id="clipPath3040">
      <path
         d="m 435.001,448.71 v -4.008 c 0.112,0 0.236,0.026 0.367,0.096 v 0 4.009 c -0.131,-0.071 -0.255,-0.097 -0.367,-0.097"
         id="path3038" />
    </clipPath>
    <clipPath
       clipPathUnits="userSpaceOnUse"
       id="clipPath3068">
      <path
         d="m 437.015,441.451 c 0.253,-0.085 5.049,-1.687 5.4,-4.907 v 0 4.009 c -0.351,3.22 -5.147,4.822 -5.4,4.907 v 0 z"
         id="path3066" />
    </clipPath>
    <clipPath
       clipPathUnits="userSpaceOnUse"
       id="clipPath3080">
      <path
         d="m 427.547,440.553 v -4.009 c 0.351,3.22 5.147,4.822 5.399,4.907 v 0 4.009 c -0.252,-0.085 -5.048,-1.687 -5.399,-4.907"
         id="path3078" />
    </clipPath>
    <clipPath
       clipPathUnits="userSpaceOnUse"
       id="clipPath3108">
      <path
         d="M 0,841.89 H 595.276 V 0 H 0 Z"
         id="path3106" />
    </clipPath>
    <clipPath
       clipPathUnits="userSpaceOnUse"
       id="clipPath3144">
      <path
         d="M 0,841.89 H 595.276 V 0 H 0 Z"
         id="path3142" />
    </clipPath>
    <clipPath
       clipPathUnits="userSpaceOnUse"
       id="clipPath3162">
      <path
         d="M 0,841.89 H 595.276 V 0 H 0 Z"
         id="path3160" />
    </clipPath>
    <clipPath
       clipPathUnits="userSpaceOnUse"
       id="clipPath3198">
      <path
         d="M 0,841.89 H 595.276 V 0 H 0 Z"
         id="path3196" />
    </clipPath>
    <clipPath
       clipPathUnits="userSpaceOnUse"
       id="clipPath3216">
      <path
         d="M 0,841.89 H 595.276 V 0 H 0 Z"
         id="path3214" />
    </clipPath>
    <clipPath
       clipPathUnits="userSpaceOnUse"
       id="clipPath3268">
      <path
         d="m 434.972,286.979 h -0.109 c -6.921,0 -9.557,-3.64 -9.602,-6.159 v 0 -4.01 c 0.045,2.52 2.681,6.161 9.602,6.161 v 0 h 0.109 0.108 c 6.94,0 9.567,-3.641 9.611,-6.161 v 0 4.01 c -0.044,2.519 -2.671,6.159 -9.611,6.159 v 0 z"
         id="path3266" />
    </clipPath>
    <clipPath
       clipPathUnits="userSpaceOnUse"
       id="clipPath3324">
      <path
         d="m 441.209,275.065 v -4.008 c 0.145,0.013 0.37,0.025 0.623,0.025 v 0 4.009 c -0.253,0 -0.478,-0.011 -0.623,-0.026"
         id="path3322" />
    </clipPath>
    <clipPath
       clipPathUnits="userSpaceOnUse"
       id="clipPath3340">
      <path
         d="m 441.832,271.082 c 0.684,0 1.565,-0.083 1.572,-0.43 v 0 4 c 0.007,0.354 -0.883,0.439 -1.572,0.439 v 0 z m 1.572,-0.439 c 0,0.003 0,0.006 0,0.009 v 0 z"
         id="path3338" />
    </clipPath>
    <clipPath
       clipPathUnits="userSpaceOnUse"
       id="clipPath3364">
      <path
         d="m 426.548,274.652 v -4 c 0.007,0.347 0.889,0.43 1.573,0.43 v 0 c 0.252,0 0.478,-0.012 0.623,-0.025 v 0 4.008 c -0.145,0.015 -0.371,0.026 -0.623,0.026 v 0 c -0.689,0 -1.58,-0.085 -1.573,-0.439 m 0,-4.009 v 0.009 c 0,-0.003 0,-0.006 0,-0.009"
         id="path3362" />
    </clipPath>
    <clipPath
       clipPathUnits="userSpaceOnUse"
       id="clipPath3412">
      <path
         d="m 429.904,275.452 c 0,-2.584 1.847,-5.049 1.962,-5.203 v 0 4.009 c -0.115,0.154 -1.962,2.619 -1.962,5.203 v 0 z"
         id="path3410" />
    </clipPath>
    <clipPath
       clipPathUnits="userSpaceOnUse"
       id="clipPath3424">
      <path
         d="m 438.095,274.258 v -4.009 c 0.099,0.161 1.79,2.882 1.79,5.672 v 0 4.009 c 0,-2.79 -1.691,-5.511 -1.79,-5.672"
         id="path3422" />
    </clipPath>
    <clipPath
       clipPathUnits="userSpaceOnUse"
       id="clipPath3448">
      <path
         d="M 0,841.89 H 595.276 V 0 H 0 Z"
         id="path3446" />
    </clipPath>
    <clipPath
       clipPathUnits="userSpaceOnUse"
       id="clipPath3496">
      <path
         d="m 433.122,118.178 c 0.424,-0.341 3.724,-3.064 3.724,-5.896 v 0 4.009 c 0,2.831 -3.3,5.555 -3.724,5.896 v 0 z"
         id="path3494" />
    </clipPath>
    <clipPath
       clipPathUnits="userSpaceOnUse"
       id="clipPath3508">
      <path
         d="m 431.916,117.044 v -4.008 c 1.384,1.72 1.769,2.931 1.769,3.746 v 0 4.009 c 0,-0.816 -0.385,-2.026 -1.769,-3.747"
         id="path3506" />
    </clipPath>
    <clipPath
       clipPathUnits="userSpaceOnUse"
       id="clipPath3532">
      <path
         d="m 436.731,115.402 v -4.008 c 0.079,0.085 1.566,1.689 1.566,2.978 v 0 4.009 c 0,-1.289 -1.487,-2.894 -1.566,-2.979"
         id="path3530" />
    </clipPath>
    <clipPath
       clipPathUnits="userSpaceOnUse"
       id="clipPath3560">
      <path
         d="m 438.296,114.429 c 0.168,-0.143 3.339,-2.876 3.385,-6.917 v 0 4.009 c -0.046,4.041 -3.217,6.773 -3.385,6.916 v 0 z"
         id="path3558" />
    </clipPath>
    <clipPath
       clipPathUnits="userSpaceOnUse"
       id="clipPath3572">
      <path
         d="m 429.043,111.415 v -4.009 c 0,0.547 0.234,2.359 2.873,5.63 v 0 4.008 c -2.639,-3.271 -2.873,-5.082 -2.873,-5.629"
         id="path3570" />
    </clipPath>
    <clipPath
       clipPathUnits="userSpaceOnUse"
       id="clipPath3596">
      <path
         d="M 0,841.89 H 595.276 V 0 H 0 Z"
         id="path3594" />
    </clipPath>
  </defs>
  <g
     id="layer1"
     transform="translate(-39.657097,192.39799)">
    <path
       d="m 54.659228,-186.55649 v 5.7531 l -3.752851,4.59316 v -5.75274 z"
       style="fill:#bd3fa0;fill-opacity:1;fill-rule:nonzero;stroke:none;stroke-width:0.352778"
       id="path2822" />
    <path
       d="m 50.906337,-176.21019 h -7.499349 v -5.75275 h 7.499349 z"
       style="fill:#ac3589;fill-opacity:1;fill-rule:nonzero;stroke:none;stroke-width:0.352778"
       id="path2824" />
    <path
       d="m 43.407198,-181.96297 v 5.75274 l -3.750031,-4.59316 v -5.7531 z"
       style="fill:#8e2573;fill-opacity:1;fill-rule:nonzero;stroke:none;stroke-width:0.352778"
       id="path2828" />
    <path
       d="m 50.906478,-191.14987 3.75285,4.59352 -3.752851,4.59352 h -7.499349 l -3.750031,-4.59352 3.750031,-4.59352 z"
       style="fill:#b4328d;fill-opacity:1;fill-rule:nonzero;stroke:none;stroke-width:0.352778"
       id="path2832" />
    <path
       d="m 43.297628,-189.97558 v 1.41429 c -0.002,0 -0.005,0 -0.0102,0 v -1.41429 c 0.005,0 0.008,0 0.0102,0"
       style="fill:#7b647a;fill-opacity:1;fill-rule:nonzero;stroke:none;stroke-width:0.352778"
       id="path2844" />
    <path
       d="m 43.287288,-189.97544 v 1.41429 c -0.006,3.5e-4 -0.0148,0.001 -0.0247,0.003 v -1.41429 c 0.01,-0.002 0.0183,-0.002 0.0247,-0.003"
       style="fill:#7f687e;fill-opacity:1;fill-rule:nonzero;stroke:none;stroke-width:0.352778"
       id="path2848" />
    <path
       d="m 43.262488,-189.97265 v 1.41428 c -0.009,0.001 -0.0198,0.004 -0.0307,0.007 v -1.41428 c 0.0109,-0.003 0.0215,-0.005 0.0307,-0.007"
       style="fill:#846b83;fill-opacity:1;fill-rule:nonzero;stroke:none;stroke-width:0.352778"
       id="path2852" />
    <path
       d="m 43.231838,-189.96595 v 1.41429 c -0.0138,0.004 -0.0286,0.009 -0.0437,0.0166 v -1.41429 c 0.0152,-0.007 0.03,-0.0127 0.0437,-0.0166"
       style="fill:#896f86;fill-opacity:1;fill-rule:nonzero;stroke:none;stroke-width:0.352778"
       id="path2856" />
    <path
       d="m 43.188088,-189.94923 v 1.41429 c -0.0233,0.0116 -0.0473,0.0282 -0.0684,0.0526 v -1.41429 c 0.0212,-0.024 0.0452,-0.0409 0.0684,-0.0526"
       style="fill:#8d738c;fill-opacity:1;fill-rule:nonzero;stroke:none;stroke-width:0.352778"
       id="path2860" />
    <path
       d="m 43.119508,-189.89652 v 1.41428 c -0.0138,0.0155 -0.0265,0.0346 -0.037,0.0571 v -1.41428 c 0.0106,-0.0226 0.0233,-0.0416 0.037,-0.0572"
       style="fill:#896f86;fill-opacity:1;fill-rule:nonzero;stroke:none;stroke-width:0.352778"
       id="path2864" />
    <path
       d="m 43.082328,-189.83934 v 1.41429 c -0.008,0.0183 -0.0159,0.0395 -0.0215,0.0632 v -1.41393 c 0.006,-0.024 0.013,-0.0452 0.0215,-0.0635"
       style="fill:#846b83;fill-opacity:1;fill-rule:nonzero;stroke:none;stroke-width:0.352778"
       id="path2868" />
    <path
       d="m 43.060948,-189.77594 v 1.41428 c -0.006,0.0254 -0.01,0.0543 -0.0102,0.0868 v -1.41393 c 7.1e-4,-0.0328 0.004,-0.0617 0.0102,-0.0871"
       style="fill:#7f687e;fill-opacity:1;fill-rule:nonzero;stroke:none;stroke-width:0.352778"
       id="path2872" />
    <path
       d="m 43.050608,-189.68895 v 1.41429 0.0145 -1.41429 z"
       style="fill:#7b647a;fill-opacity:1;fill-rule:nonzero;stroke:none;stroke-width:0.352778"
       id="path2876" />
    <path
       d="m 51.266137,-189.67448 v 1.41428 c 0,-0.20602 -0.1083,-0.27093 -0.18168,-0.29175 v -1.41428 c 0.0734,0.0208 0.18168,0.0861 0.18168,0.29175"
       style="fill:#6b586b;fill-opacity:1;fill-rule:nonzero;stroke:none;stroke-width:0.352778"
       id="path2888" />
    <path
       d="m 51.084598,-189.96613 v 1.41429 c -0.012,-0.004 -0.0233,-0.006 -0.0328,-0.007 v -1.41424 c 0.01,0.001 0.0208,0.004 0.0328,0.007"
       style="fill:#705c71;fill-opacity:1;fill-rule:nonzero;stroke:none;stroke-width:0.352778"
       id="path2892" />
    <path
       d="m 51.051857,-189.973 v 1.41428 c -0.0106,-0.002 -0.0191,-0.002 -0.0247,-0.002 v -1.41428 c 0.006,3.5e-4 0.0141,0.001 0.0247,0.002"
       style="fill:#756075;fill-opacity:1;fill-rule:nonzero;stroke:none;stroke-width:0.352778"
       id="path2896" />
    <path
       d="m 51.027057,-189.97544 v 1.41429 c -0.004,-3.6e-4 -0.007,-3.6e-4 -0.008,-3.6e-4 v -1.41393 c 0.001,0 0.004,0 0.008,0"
       style="fill:#7b647a;fill-opacity:1;fill-rule:nonzero;stroke:none;stroke-width:0.352778"
       id="path2900" />
    <path
       d="m 44.513407,-189.57595 v 1.41428 c -0.0176,-7e-4 -0.0353,-0.001 -0.0519,-0.002 v -1.41428 c 0.0166,7e-4 0.0342,10e-4 0.0519,0.002"
       style="fill:#7b647a;fill-opacity:1;fill-rule:nonzero;stroke:none;stroke-width:0.352778"
       id="path2912" />
    <path
       d="m 44.461368,-189.57803 v 1.41428 c -0.288921,-0.0123 -0.511881,-0.0328 -0.683331,-0.0579 v -1.41429 c 0.17145,0.025 0.39441,0.0455 0.683331,0.0579"
       style="fill:#756075;fill-opacity:1;fill-rule:nonzero;stroke:none;stroke-width:0.352778"
       id="path2916" />
    <path
       d="m 43.777867,-189.63589 v 1.41429 c -0.11642,-0.0173 -0.209199,-0.0363 -0.282569,-0.0568 v -1.41429 c 0.0734,0.0205 0.166149,0.0399 0.282569,0.0568"
       style="fill:#705c71;fill-opacity:1;fill-rule:nonzero;stroke:none;stroke-width:0.352778"
       id="path2920" />
    <path
       d="m 43.495398,-189.69276 v 1.41429 c -0.20637,-0.0579 -0.26,-0.12524 -0.26,-0.17992 v -1.41429 c 0,0.0547 0.0536,0.12207 0.26,0.17992"
       style="fill:#6b586b;fill-opacity:1;fill-rule:nonzero;stroke:none;stroke-width:0.352778"
       id="path2924" />
    <path
       d="m 46.961507,-188.61513 v 1.41429 c -0.227889,-0.20426 -0.74436,-0.60008 -1.511649,-0.81527 v -1.41429 c 0.767289,0.2152 1.28376,0.61101 1.511649,0.81527"
       style="fill:#6b586b;fill-opacity:1;fill-rule:nonzero;stroke:none;stroke-width:0.352778"
       id="path2936" />
    <path
       d="m 45.449787,-189.4304 v 1.41429 c -0.15416,-0.0434 -0.31785,-0.0794 -0.49212,-0.10513 v -1.41393 c 0.17427,0.0254 0.33796,0.0614 0.49212,0.10477"
       style="fill:#705c71;fill-opacity:1;fill-rule:nonzero;stroke:none;stroke-width:0.352778"
       id="path2940" />
    <path
       d="m 44.957837,-189.53531 v 1.41428 c -0.1337,-0.0198 -0.273399,-0.0335 -0.418749,-0.0399 v -1.41393 c 0.14535,0.006 0.285049,0.0197 0.418749,0.0395"
       style="fill:#756075;fill-opacity:1;fill-rule:nonzero;stroke:none;stroke-width:0.352778"
       id="path2944" />
    <path
       d="m 44.539227,-189.57493 v 1.41429 l -0.0258,-0.001 v -1.41429 c 0.008,3.5e-4 0.0173,7e-4 0.0258,0.001"
       style="fill:#7b647a;fill-opacity:1;fill-rule:nonzero;stroke:none;stroke-width:0.352778"
       id="path2948" />
    <path
       d="m 51.081137,-189.87292 v 1.41428 0.002 -1.41428 z"
       style="fill:#7b647a;fill-opacity:1;fill-rule:nonzero;stroke:none;stroke-width:0.352778"
       id="path2960" />
    <path
       d="m 51.081137,-189.8707 v 1.41429 c 0,0.005 -7.1e-4,0.0109 -0.002,0.0166 v -1.41429 c 9.99e-4,-0.006 0.002,-0.0113 0.002,-0.0166"
       style="fill:#7f687e;fill-opacity:1;fill-rule:nonzero;stroke:none;stroke-width:0.352778"
       id="path2964" />
    <path
       d="m 51.079057,-189.85415 v 1.41428 c -10e-4,0.006 -0.004,0.0127 -0.007,0.0191 v -1.41393 c 0.003,-0.007 0.006,-0.013 0.007,-0.0194"
       style="fill:#846b83;fill-opacity:1;fill-rule:nonzero;stroke:none;stroke-width:0.352778"
       id="path2968" />
    <path
       d="m 51.072177,-189.83486 v 1.41429 c -0.005,0.01 -0.0116,0.0198 -0.0212,0.03 v -1.41429 c 0.01,-0.01 0.0162,-0.0201 0.0212,-0.03"
       style="fill:#896f86;fill-opacity:1;fill-rule:nonzero;stroke:none;stroke-width:0.352778"
       id="path2972" />
    <path
       d="m 51.051158,-189.80473 v 1.41429 c -0.0176,0.0187 -0.0434,0.0378 -0.0808,0.0565 v -1.41394 c 0.0374,-0.019 0.0631,-0.0381 0.0808,-0.0568"
       style="fill:#8d738c;fill-opacity:1;fill-rule:nonzero;stroke:none;stroke-width:0.352778"
       id="path2976" />
    <path
       d="m 50.970187,-189.74804 v 1.41429 c -0.037,0.0187 -0.0854,0.037 -0.147809,0.0547 v -1.41429 c 0.0624,-0.0176 0.110769,-0.036 0.147809,-0.0547"
       style="fill:#896f86;fill-opacity:1;fill-rule:nonzero;stroke:none;stroke-width:0.352778"
       id="path2980" />
    <path
       d="m 50.822407,-189.69343 v 1.41429 c -0.0663,0.0187 -0.14852,0.0363 -0.24977,0.0522 v -1.41429 c 0.10125,-0.0159 0.18345,-0.0335 0.24977,-0.0522"
       style="fill:#846b83;fill-opacity:1;fill-rule:nonzero;stroke:none;stroke-width:0.352778"
       id="path2984" />
    <path
       d="m 50.572648,-189.64125 v 1.41428 c -0.149931,0.0236 -0.342191,0.043 -0.586671,0.0564 v -1.41393 c 0.24448,-0.0134 0.43674,-0.0332 0.586671,-0.0568"
       style="fill:#7f687e;fill-opacity:1;fill-rule:nonzero;stroke:none;stroke-width:0.352778"
       id="path2988" />
    <path
       d="m 49.985937,-189.58456 v 1.41428 c -0.0589,0.003 -0.121,0.006 -0.18591,0.008 -0.0265,0.001 -0.0522,0.002 -0.078,0.004 v -1.41428 c 0.0258,-10e-4 0.0515,-0.002 0.078,-0.004 0.0649,-0.002 0.127001,-0.005 0.18591,-0.008"
       style="fill:#7b647a;fill-opacity:1;fill-rule:nonzero;stroke:none;stroke-width:0.352778"
       id="path2992" />
    <path
       d="m 49.722068,-189.57253 v 1.41428 c -0.140411,0.008 -0.27552,0.0222 -0.404991,0.0427 v -1.41393 c 0.129471,-0.0208 0.26458,-0.0353 0.404991,-0.043"
       style="fill:#7f687e;fill-opacity:1;fill-rule:nonzero;stroke:none;stroke-width:0.352778"
       id="path2996" />
    <path
       d="m 49.316897,-189.52963 v 1.41428 c -0.15981,0.025 -0.311499,0.0589 -0.45402,0.0991 v -1.41428 c 0.142521,-0.0402 0.29421,-0.0741 0.45402,-0.0991"
       style="fill:#846b83;fill-opacity:1;fill-rule:nonzero;stroke:none;stroke-width:0.352778"
       id="path3000" />
    <path
       d="m 48.862837,-189.4304 v 1.41429 c -0.255759,0.0716 -0.48331,0.16404 -0.68192,0.26211 v -1.41393 c 0.198611,-0.0984 0.426161,-0.1905 0.68192,-0.26247"
       style="fill:#896f86;fill-opacity:1;fill-rule:nonzero;stroke:none;stroke-width:0.352778"
       id="path3004" />
    <path
       d="m 48.181058,-189.16807 v 1.41428 c -0.45297,0.22437 -0.753891,0.48155 -0.886181,0.60678 v -1.41428 c 0.13229,-0.12524 0.433211,-0.38241 0.88618,-0.60678"
       style="fill:#8d738c;fill-opacity:1;fill-rule:nonzero;stroke:none;stroke-width:0.352778"
       id="path3008" />
    <path
       d="m 47.165797,-188.52711 v 1.41429 c -0.004,0 -0.007,0 -0.0113,-3.6e-4 v -1.41393 c 0.004,0 0.007,0 0.0113,0"
       style="fill:#7b647a;fill-opacity:1;fill-rule:nonzero;stroke:none;stroke-width:0.352778"
       id="path3020" />
    <path
       d="m 47.154407,-188.52729 v 1.41429 c -0.009,-3.5e-4 -0.0187,-0.001 -0.0272,-0.003 v -1.41393 c 0.008,0.001 0.018,0.002 0.0272,0.002"
       style="fill:#756075;fill-opacity:1;fill-rule:nonzero;stroke:none;stroke-width:0.352778"
       id="path3024" />
    <path
       d="m 47.127207,-188.52986 v 1.41428 c -0.0116,-0.002 -0.0229,-0.004 -0.0339,-0.007 v -1.41428 c 0.0109,0.003 0.0222,0.006 0.0339,0.007"
       style="fill:#705c71;fill-opacity:1;fill-rule:nonzero;stroke:none;stroke-width:0.352778"
       id="path3028" />
    <path
       d="m 47.093447,-188.53709 v 1.41428 c -0.0797,-0.0226 -0.12876,-0.0748 -0.13194,-0.078 v -1.41428 c 0.003,0.004 0.0522,0.0557 0.13194,0.078"
       style="fill:#6b586b;fill-opacity:1;fill-rule:nonzero;stroke:none;stroke-width:0.352778"
       id="path3032" />
    <path
       d="m 47.294987,-188.56122 v 1.41428 c -0.004,0.002 -0.007,0.004 -0.0102,0.005 v -1.41389 c 0.003,-0.002 0.007,-0.004 0.0102,-0.005"
       style="fill:#8d738c;fill-opacity:1;fill-rule:nonzero;stroke:none;stroke-width:0.352778"
       id="path3044" />
    <path
       d="m 47.284647,-188.55604 v 1.41429 c -0.0169,0.008 -0.0339,0.0148 -0.0501,0.019 v -1.41393 c 0.0162,-0.005 0.0332,-0.0109 0.0501,-0.0194"
       style="fill:#896f86;fill-opacity:1;fill-rule:nonzero;stroke:none;stroke-width:0.352778"
       id="path3048" />
    <path
       d="m 47.234697,-188.53674 v 1.41429 c -0.01,0.003 -0.0205,0.005 -0.03,0.007 v -1.41429 c 0.01,-0.001 0.0201,-0.004 0.03,-0.007"
       style="fill:#846b83;fill-opacity:1;fill-rule:nonzero;stroke:none;stroke-width:0.352778"
       id="path3052" />
    <path
       d="m 47.204707,-188.53004 v 1.41429 c -0.008,0.001 -0.0173,0.002 -0.0254,0.002 v -1.41429 c 0.008,-3.5e-4 0.0169,-0.001 0.0254,-0.003"
       style="fill:#7f687e;fill-opacity:1;fill-rule:nonzero;stroke:none;stroke-width:0.352778"
       id="path3056" />
    <path
       d="m 47.179207,-188.52746 v 1.41428 c -0.005,3.6e-4 -0.009,3.6e-4 -0.0134,3.6e-4 v -1.41429 c 0.005,0 0.009,0 0.0134,-3.5e-4"
       style="fill:#7b647a;fill-opacity:1;fill-rule:nonzero;stroke:none;stroke-width:0.352778"
       id="path3060" />
    <path
       d="m 49.780938,-185.64943 v 1.41428 c -0.124181,-1.13594 -1.815751,-1.70109 -1.905001,-1.73108 v -1.41428 c 0.0892,0.03 1.78082,0.59513 1.905001,1.73108"
       style="fill:#6b586b;fill-opacity:1;fill-rule:nonzero;stroke:none;stroke-width:0.352778"
       id="path3072" />
    <path
       d="m 46.440597,-187.38041 v 1.41429 c -0.0307,0.0102 -0.25329,0.0847 -0.53657,0.22437 v -1.41429 c 0.28328,-0.1397 0.50588,-0.21414 0.53657,-0.22437"
       style="fill:#896f86;fill-opacity:1;fill-rule:nonzero;stroke:none;stroke-width:0.352778"
       id="path3084" />
    <path
       d="m 45.904197,-187.15597 v 1.41429 c -0.31856,0.15769 -0.71402,0.39793 -0.999419,0.7239 v -1.41429 c 0.285399,-0.32597 0.680859,-0.56621 0.999419,-0.7239"
       style="fill:#8d738c;fill-opacity:1;fill-rule:nonzero;stroke:none;stroke-width:0.352778"
       id="path3088" />
    <path
       d="m 44.904778,-186.43214 v 1.41429 c -0.10125,0.11571 -0.188741,0.24271 -0.254001,0.38029 v -1.41429 c 0.0653,-0.13758 0.152751,-0.26423 0.254001,-0.38029"
       style="fill:#896f86;fill-opacity:1;fill-rule:nonzero;stroke:none;stroke-width:0.352778"
       id="path3092" />
    <path
       d="m 44.650877,-186.05181 v 1.41429 c -0.0395,0.0836 -0.0706,0.17145 -0.0917,0.26317 v -1.41393 c 0.0212,-0.0921 0.0522,-0.17992 0.0917,-0.26353"
       style="fill:#846b83;fill-opacity:1;fill-rule:nonzero;stroke:none;stroke-width:0.352778"
       id="path3096" />
    <path
       d="m 44.559227,-185.78843 v 1.41429 c -0.0102,0.0455 -0.0183,0.0917 -0.0233,0.139 v -1.41429 c 0.005,-0.0473 0.013,-0.0935 0.0233,-0.139"
       style="fill:#7f687e;fill-opacity:1;fill-rule:nonzero;stroke:none;stroke-width:0.352778"
       id="path3100" />
    <path
       d="m 50.907747,-181.79713 h -7.499349 v -1.41429 h 7.499349 z"
       style="fill:#ac3589;fill-opacity:1;fill-rule:nonzero;stroke:none;stroke-width:0.352778"
       id="path3110" />
    <path
       d="m 54.657498,-187.80466 v 1.41429 l -3.749671,4.59317 v -1.41394 z"
       style="fill:#bd3fa0;fill-opacity:1;fill-rule:nonzero;stroke:none;stroke-width:0.352778"
       id="path3114" />
    <path
       d="m 47.875837,-187.38041 c 2.7051,-0.20214 3.092451,-1.41675 3.3147,-1.93075 0.235301,-0.66428 -0.15099,-0.66428 -0.17145,-0.66428 0.0219,0.0166 0.43815,0.33655 -1.2192,0.39935 -1.37795,0.0494 -2.25107,0.77469 -2.50472,1.01494 -0.0462,0.0247 -0.09,0.0342 -0.129469,0.0342 -0.121001,0 -0.200031,-0.0836 -0.204261,-0.0882 -0.31115,-0.27834 -1.15887,-0.9137 -2.44792,-0.96097 -1.654179,-0.0628 -1.237899,-0.38276 -1.216029,-0.39934 -0.0201,0 -0.4064,0 -0.17145,0.66428 0.22225,0.51399 0.606429,1.72861 3.314699,1.93075 -0.0889,0.0296 -1.78117,0.59514 -1.905,1.73108 0.006,7.1e-4 0.11712,0.0162 0.30798,0.0162 0.50623,0 1.52999,-0.115 2.25425,-0.95462 0.019,-0.0208 0.0388,-0.0282 0.0568,-0.0282 0.0356,0 0.0624,0.0268 0.0639,0.0282 0.72389,0.83962 1.748361,0.95462 2.25424,0.95462 0.1905,0 0.30234,-0.0155 0.30798,-0.0162 -0.123829,-1.13594 -1.81575,-1.70145 -1.905,-1.73108 m 3.03212,-5.01756 3.749681,4.59317 -3.749681,4.59352 h -7.499339 l -3.749681,-4.59352 3.749681,-4.59317 z"
       style="fill:#dd3da5;fill-opacity:1;fill-rule:nonzero;stroke:none;stroke-width:0.352778"
       id="path3118" />
    <path
       d="m 43.408578,-183.21131 v 1.41428 l -3.749671,-4.59352 v -1.41428 z"
       style="fill:#8e2573;fill-opacity:1;fill-rule:nonzero;stroke:none;stroke-width:0.352778"
       id="path3122" />
  </g>
</svg>
