<?xml version="1.0" encoding="UTF-8" standalone="no"?>
<!-- Created with Inkscape (http://www.inkscape.org/) -->

<svg
   width="15.00222mm"
   height="16.188129mm"
   viewBox="0 0 15.002219 16.18813"
   version="1.1"
   id="svg5"
   xmlns="http://www.w3.org/2000/svg"
   xmlns:svg="http://www.w3.org/2000/svg">
  <defs
     id="defs2">
    <clipPath
       clipPathUnits="userSpaceOnUse"
       id="clipPath900">
      <path
         d="M 0,841.89 H 595.276 V 0 H 0 Z"
         id="path898" />
    </clipPath>
    <clipPath
       clipPathUnits="userSpaceOnUse"
       id="clipPath930">
      <path
         d="m 174.101,792.692 c -2.565,-1.381 -2.754,-3.073 -3.141,-3.486 v 0 c -0.219,-0.233 -0.555,-0.32 -0.823,-0.32 v 0 c -0.205,0 -0.372,0.051 -0.419,0.129 v 0 c -0.108,0.171 0.054,0.871 -1.791,2.386 v 0 -10.023 c 1.845,-1.515 1.683,-2.215 1.791,-2.387 v 0 c 0.047,-0.076 0.214,-0.126 0.419,-0.126 v 0 c 0.268,0 0.604,0.087 0.823,0.318 v 0 c 0.387,0.414 0.576,2.107 3.141,3.488 v 0 c 1.795,0.969 3.444,1.114 4.266,1.114 v 0 c 0.35,0 0.539,-0.025 0.55,-0.026 v 0 10.022 c -0.011,0.001 -0.2,0.025 -0.55,0.025 v 0 c -0.822,0 -2.471,-0.144 -4.266,-1.114"
         id="path928" />
    </clipPath>
    <clipPath
       clipPathUnits="userSpaceOnUse"
       id="clipPath998">
      <path
         d="m 160.025,787.569 c -0.003,-0.069 -0.006,-0.137 -0.006,-0.205 v 0 -10.022 c 0,0.067 0.003,0.137 0.006,0.206 v 0 c 0.171,2.958 1.685,3.787 1.764,3.83 v 0 10.023 c -0.079,-0.044 -1.593,-0.872 -1.764,-3.832"
         id="path996" />
    </clipPath>
    <clipPath
       clipPathUnits="userSpaceOnUse"
       id="clipPath1026">
      <path
         d="m 168.764,777.712 c -9.396,0 -17.01,5.383 -17.01,12.027 v 0 -10.021 c 0,-6.645 7.614,-12.029 17.01,-12.029 v 0 c 9.396,0 17.01,5.384 17.01,12.029 v 0 10.021 c 0,-6.644 -7.614,-12.027 -17.01,-12.027"
         id="path1024" />
    </clipPath>
    <clipPath
       clipPathUnits="userSpaceOnUse"
       id="clipPath1082">
      <path
         d="M 0,841.89 H 595.276 V 0 H 0 Z"
         id="path1080" />
    </clipPath>
    <clipPath
       clipPathUnits="userSpaceOnUse"
       id="clipPath1104">
      <path
         d="M 0,841.89 H 595.276 V 0 H 0 Z"
         id="path1102" />
    </clipPath>
    <clipPath
       clipPathUnits="userSpaceOnUse"
       id="clipPath1126">
      <path
         d="M 0,841.89 H 595.276 V 0 H 0 Z"
         id="path1124" />
    </clipPath>
    <clipPath
       clipPathUnits="userSpaceOnUse"
       id="clipPath1146">
      <path
         d="M 0,841.89 H 595.276 V 0 H 0 Z"
         id="path1144" />
    </clipPath>
    <clipPath
       clipPathUnits="userSpaceOnUse"
       id="clipPath1180">
      <path
         d="m 167.937,296.757 c -0.036,10e-4 -0.072,10e-4 -0.108,10e-4 v 0 c -6.93,0 -9.558,-3.642 -9.603,-6.167 v 0 -10.022 c 0.045,2.526 2.673,6.167 9.603,6.167 v 0 h 0.108 0.109 c 6.931,0 9.567,-3.641 9.602,-6.167 v 0 10.022 c -0.035,2.526 -2.671,6.167 -9.602,6.167 v 0 c -0.036,0 -0.073,0 -0.109,-10e-4"
         id="path1178" />
    </clipPath>
    <clipPath
       clipPathUnits="userSpaceOnUse"
       id="clipPath1236">
      <path
         d="m 174.166,284.838 v -10.022 c 0.152,0.015 0.393,0.029 0.658,0.029 v 0 10.021 c -0.265,0 -0.506,-0.012 -0.658,-0.028"
         id="path1234" />
    </clipPath>
    <clipPath
       clipPathUnits="userSpaceOnUse"
       id="clipPath1252">
      <path
         d="m 159.513,284.431 v -10.023 c -0.005,0.349 0.859,0.437 1.545,0.437 v 0 c 0.264,0 0.502,-0.014 0.652,-0.029 v 0 10.022 c -0.15,0.016 -0.388,0.028 -0.652,0.028 v 0 c -0.686,0 -1.55,-0.086 -1.545,-0.435"
         id="path1250" />
    </clipPath>
    <clipPath
       clipPathUnits="userSpaceOnUse"
       id="clipPath1300">
      <path
         d="m 174.824,274.845 c 0.689,0 1.553,-0.088 1.547,-0.437 v 0 10.023 c 0.006,0.349 -0.858,0.435 -1.547,0.435 v 0 z"
         id="path1298" />
    </clipPath>
    <clipPath
       clipPathUnits="userSpaceOnUse"
       id="clipPath1324">
      <path
         d="m 162.869,279.207 c 0,-2.581 1.839,-5.039 1.955,-5.193 v 0 10.021 c -0.116,0.154 -1.955,2.612 -1.955,5.194 v 0 z"
         id="path1322" />
    </clipPath>
    <clipPath
       clipPathUnits="userSpaceOnUse"
       id="clipPath1336">
      <path
         d="m 171.051,284.035 v -10.021 c 0.101,0.161 1.799,2.88 1.799,5.669 v 0 10.023 c 0,-2.79 -1.698,-5.509 -1.799,-5.671"
         id="path1334" />
    </clipPath>
    <clipPath
       clipPathUnits="userSpaceOnUse"
       id="clipPath1360">
      <path
         d="m 167.937,277.665 c -9.395,0 -17.01,5.384 -17.01,12.029 v 0 -10.023 c 0,-6.643 7.615,-12.027 17.01,-12.027 v 0 c 9.397,0 17.011,5.384 17.011,12.027 v 0 10.023 c 0,-6.645 -7.614,-12.029 -17.011,-12.029"
         id="path1358" />
    </clipPath>
    <clipPath
       clipPathUnits="userSpaceOnUse"
       id="clipPath1416">
      <path
         d="M 0,841.89 H 595.276 V 0 H 0 Z"
         id="path1414" />
    </clipPath>
    <clipPath
       clipPathUnits="userSpaceOnUse"
       id="clipPath1456">
      <path
         d="m 167.24,628.447 v -10.022 c 0.288,0.261 0.54,0.394 0.675,0.401 v 0 10.022 c -0.135,-0.006 -0.387,-0.14 -0.675,-0.401"
         id="path1454" />
    </clipPath>
    <clipPath
       clipPathUnits="userSpaceOnUse"
       id="clipPath1482">
      <path
         d="m 178.257,616.859 c 0.274,-0.012 0.328,-0.201 0.328,-0.348 v 0 10.022 c 0,0.147 -0.054,0.337 -0.328,0.348 v 0 z"
         id="path1480" />
    </clipPath>
    <clipPath
       clipPathUnits="userSpaceOnUse"
       id="clipPath1502">
      <path
         d="M 157.298,626.452 V 616.43 c 0,0.121 0.038,0.346 0.298,0.433 v 0 10.021 c -0.26,-0.086 -0.298,-0.311 -0.298,-0.432"
         id="path1500" />
    </clipPath>
    <clipPath
       clipPathUnits="userSpaceOnUse"
       id="clipPath1534">
      <path
         d="m 167.915,618.826 c 0.235,0 0.388,-0.14 0.685,-0.401 v 0 c 0.44,-0.395 3.757,-4.24 3.932,-4.442 v 0 10.022 c -0.175,0.202 -3.492,4.047 -3.932,4.442 v 0 c -0.297,0.261 -0.45,0.401 -0.685,0.401 v 0 z"
         id="path1532" />
    </clipPath>
    <clipPath
       clipPathUnits="userSpaceOnUse"
       id="clipPath1558">
      <path
         d="m 172.532,624.005 v -10.022 c 2.51,1.356 5.438,2.876 5.725,2.876 v 0 10.022 c -0.287,0 -3.215,-1.521 -5.725,-2.876"
         id="path1556" />
    </clipPath>
    <clipPath
       clipPathUnits="userSpaceOnUse"
       id="clipPath1586">
      <path
         d="m 157.596,616.863 c 0.361,0 3.254,-1.552 5.703,-2.88 v 0 10.022 c -2.449,1.328 -5.342,2.879 -5.703,2.879 v 0 z"
         id="path1584" />
    </clipPath>
    <clipPath
       clipPathUnits="userSpaceOnUse"
       id="clipPath1610">
      <path
         d="m 163.299,624.005 v -10.022 c 0.174,0.202 3.501,4.047 3.941,4.442 v 0 10.022 c -0.44,-0.395 -3.767,-4.24 -3.941,-4.442"
         id="path1608" />
    </clipPath>
    <clipPath
       clipPathUnits="userSpaceOnUse"
       id="clipPath1626">
      <path
         d="M 0,841.89 H 595.276 V 0 H 0 Z"
         id="path1624" />
    </clipPath>
    <clipPath
       clipPathUnits="userSpaceOnUse"
       id="clipPath1638">
      <path
         d="m 167.943,611.462 c -9.397,0 -17.01,5.384 -17.01,12.027 v 0 -10.022 c 0,-6.644 7.613,-12.028 17.01,-12.028 v 0 c 9.386,0 17,5.384 17,12.028 v 0 10.022 c 0,-6.643 -7.614,-12.027 -17,-12.027"
         id="path1636" />
    </clipPath>
    <clipPath
       clipPathUnits="userSpaceOnUse"
       id="clipPath1702">
      <path
         d="M 0,841.89 H 595.276 V 0 H 0 Z"
         id="path1700" />
    </clipPath>
    <clipPath
       clipPathUnits="userSpaceOnUse"
       id="clipPath1722">
      <path
         d="M 0,841.89 H 595.276 V 0 H 0 Z"
         id="path1720" />
    </clipPath>
    <clipPath
       clipPathUnits="userSpaceOnUse"
       id="clipPath1766">
      <path
         d="M 0,841.89 H 595.276 V 0 H 0 Z"
         id="path1764" />
    </clipPath>
    <clipPath
       clipPathUnits="userSpaceOnUse"
       id="clipPath1794">
      <path
         d="M 0,841.89 H 595.276 V 0 H 0 Z"
         id="path1792" />
    </clipPath>
    <clipPath
       clipPathUnits="userSpaceOnUse"
       id="clipPath1808">
      <path
         d="m 165.687,122.659 c 0.424,-0.34 3.727,-3.064 3.727,-5.889 v 0 10.021 c 0,2.825 -3.303,5.549 -3.727,5.89 v 0 z"
         id="path1806" />
    </clipPath>
    <clipPath
       clipPathUnits="userSpaceOnUse"
       id="clipPath1820">
      <path
         d="m 164.481,127.539 v -10.022 c 1.384,1.72 1.769,2.932 1.769,3.748 v 0 10.022 c 0,-0.816 -0.385,-2.028 -1.769,-3.748"
         id="path1818" />
    </clipPath>
    <clipPath
       clipPathUnits="userSpaceOnUse"
       id="clipPath1844">
      <path
         d="m 169.297,125.896 v -10.021 c 0.079,0.086 1.567,1.689 1.567,2.973 v 0 10.022 c 0,-1.283 -1.488,-2.887 -1.567,-2.974"
         id="path1842" />
    </clipPath>
    <clipPath
       clipPathUnits="userSpaceOnUse"
       id="clipPath1872">
      <path
         d="m 170.863,118.904 c 0.168,-0.143 3.348,-2.87 3.392,-6.911 v 0 10.022 c -0.044,4.041 -3.224,6.767 -3.392,6.911 v 0 z"
         id="path1870" />
    </clipPath>
    <clipPath
       clipPathUnits="userSpaceOnUse"
       id="clipPath1884">
      <path
         d="m 161.61,121.903 v -10.022 c 0,0.538 0.229,2.351 2.871,5.636 v 0 10.022 c -2.642,-3.285 -2.871,-5.098 -2.871,-5.636"
         id="path1882" />
    </clipPath>
    <clipPath
       clipPathUnits="userSpaceOnUse"
       id="clipPath1908">
      <path
         d="m 167.937,112.107 c -9.395,0 -17.01,5.384 -17.01,12.027 v 0 -10.021 c 0,-6.645 7.615,-12.029 17.01,-12.029 v 0 c 9.397,0 17.011,5.384 17.011,12.029 v 0 10.021 c 0,-6.643 -7.614,-12.027 -17.011,-12.027"
         id="path1906" />
    </clipPath>
    <clipPath
       clipPathUnits="userSpaceOnUse"
       id="clipPath1964">
      <path
         d="M 0,841.89 H 595.276 V 0 H 0 Z"
         id="path1962" />
    </clipPath>
    <clipPath
       clipPathUnits="userSpaceOnUse"
       id="clipPath2004">
      <path
         d="m 178.868,451.716 c 0.044,0 0.696,0 0.696,-0.848 v 0 10.606 c 0,0.849 -0.652,0.849 -0.696,0.849 v 0 z"
         id="path2002" />
    </clipPath>
    <clipPath
       clipPathUnits="userSpaceOnUse"
       id="clipPath2028">
      <path
         d="m 156.271,461.466 v -10.607 c 0,0.857 0.656,0.857 0.701,0.857 v 0 10.607 c -0.045,0 -0.701,0 -0.701,-0.857"
         id="path2026" />
    </clipPath>
    <clipPath
       clipPathUnits="userSpaceOnUse"
       id="clipPath2072">
      <path
         d="m 156.798,451.426 c 0,-0.296 0.554,-0.726 3.63,-0.843 v 0 10.607 c -3.076,0.117 -3.63,0.547 -3.63,0.843 v 0 z"
         id="path2070" />
    </clipPath>
    <clipPath
       clipPathUnits="userSpaceOnUse"
       id="clipPath2096">
      <path
         d="m 160.428,450.583 c 3.653,-0.133 6.048,-1.935 6.93,-2.73 v 0 10.607 c -0.882,0.795 -3.277,2.596 -6.93,2.73 v 0 z"
         id="path2094" />
    </clipPath>
    <clipPath
       clipPathUnits="userSpaceOnUse"
       id="clipPath2120">
      <path
         d="m 175.412,461.19 c -3.915,-0.146 -6.389,-2.202 -7.1,-2.883 v 0 -10.606 c 0.711,0.681 3.185,2.735 7.1,2.882 v 0 c 3.075,0.117 3.63,0.547 3.63,0.843 v 0 10.607 c 0,-0.296 -0.555,-0.726 -3.63,-0.843"
         id="path2118" />
    </clipPath>
    <clipPath
       clipPathUnits="userSpaceOnUse"
       id="clipPath2180">
      <path
         d="m 167.943,458.212 v -10.606 c 0.111,0 0.236,0.026 0.369,0.095 v 0 10.606 c -0.133,-0.068 -0.258,-0.095 -0.369,-0.095"
         id="path2178" />
    </clipPath>
    <clipPath
       clipPathUnits="userSpaceOnUse"
       id="clipPath2208">
      <path
         d="m 167.358,447.853 c 0.011,-0.012 0.235,-0.247 0.585,-0.247 v 0 10.606 c -0.35,0 -0.574,0.235 -0.585,0.248 v 0 z"
         id="path2206" />
    </clipPath>
    <clipPath
       clipPathUnits="userSpaceOnUse"
       id="clipPath2232">
      <path
         d="m 160.482,450.059 v -10.606 c 0.35,3.22 5.147,4.822 5.4,4.906 v 0 10.607 c -0.253,-0.084 -5.05,-1.686 -5.4,-4.907"
         id="path2230" />
    </clipPath>
    <clipPath
       clipPathUnits="userSpaceOnUse"
       id="clipPath2260">
      <path
         d="m 169.949,444.36 c 0.253,-0.085 5.049,-1.687 5.41,-4.907 v 0 10.606 c -0.361,3.221 -5.157,4.823 -5.41,4.907 v 0 z"
         id="path2258" />
    </clipPath>
    <clipPath
       clipPathUnits="userSpaceOnUse"
       id="clipPath2272">
      <path
         d="M 0,841.89 H 595.276 V 0 H 0 Z"
         id="path2270" />
    </clipPath>
    <clipPath
       clipPathUnits="userSpaceOnUse"
       id="clipPath2284">
      <path
         d="m 167.915,445.254 c -9.395,0 -17.01,5.384 -17.01,12.028 v 0 -10.606 c 0,-6.644 7.615,-12.028 17.01,-12.028 v 0 c 9.397,0 17.011,5.384 17.011,12.028 v 0 10.606 c 0,-6.644 -7.614,-12.028 -17.011,-12.028"
         id="path2282" />
    </clipPath>
    <clipPath
       clipPathUnits="userSpaceOnUse"
       id="clipPath2340">
      <path
         d="M 0,841.89 H 595.276 V 0 H 0 Z"
         id="path2338" />
    </clipPath>
    <clipPath
       clipPathUnits="userSpaceOnUse"
       id="clipPath2366">
      <path
         d="m 437.903,782.808 c -2.565,-1.38 -2.755,-3.073 -3.142,-3.486 v 0 c -0.219,-0.233 -0.551,-0.32 -0.82,-0.32 v 0 c -0.204,0 -0.371,0.051 -0.422,0.129 v 0 c -0.107,0.171 0.055,0.871 -1.791,2.386 v 0 -4.009 c 1.846,-1.515 1.684,-2.215 1.791,-2.387 v 0 c 0.051,-0.076 0.218,-0.127 0.422,-0.127 v 0 c 0.269,0 0.601,0.087 0.82,0.318 v 0 c 0.387,0.414 0.577,2.107 3.142,3.488 v 0 c 1.795,0.97 3.443,1.114 4.266,1.114 v 0 c 0.348,0 0.539,-0.024 0.549,-0.025 v 0 4.008 c -0.01,10e-4 -0.201,0.026 -0.549,0.026 v 0 c -0.823,0 -2.471,-0.144 -4.266,-1.115"
         id="path2364" />
    </clipPath>
    <clipPath
       clipPathUnits="userSpaceOnUse"
       id="clipPath2434">
      <path
         d="m 423.827,777.685 c -0.004,-0.069 -0.006,-0.137 -0.006,-0.205 v 0 -4.008 c 0,0.066 0.002,0.136 0.006,0.205 v 0 c 0.171,2.959 1.685,3.781 1.764,3.825 v 0 4.008 c -0.079,-0.043 -1.593,-0.865 -1.764,-3.825"
         id="path2432" />
    </clipPath>
    <clipPath
       clipPathUnits="userSpaceOnUse"
       id="clipPath2462">
      <path
         d="M 0,841.89 H 595.276 V 0 H 0 Z"
         id="path2460" />
    </clipPath>
    <clipPath
       clipPathUnits="userSpaceOnUse"
       id="clipPath2514">
      <path
         d="M 0,841.89 H 595.276 V 0 H 0 Z"
         id="path2512" />
    </clipPath>
    <clipPath
       clipPathUnits="userSpaceOnUse"
       id="clipPath2532">
      <path
         d="M 0,841.89 H 595.276 V 0 H 0 Z"
         id="path2530" />
    </clipPath>
    <clipPath
       clipPathUnits="userSpaceOnUse"
       id="clipPath2576">
      <path
         d="m 434.278,617.259 v -4.01 c 0.288,0.261 0.54,0.395 0.676,0.402 v 0 4.008 c -0.136,-0.006 -0.388,-0.14 -0.676,-0.4"
         id="path2574" />
    </clipPath>
    <clipPath
       clipPathUnits="userSpaceOnUse"
       id="clipPath2602">
      <path
         d="m 445.304,611.684 c 0.266,-0.012 0.319,-0.199 0.319,-0.345 v 0 4.008 c 0,0.147 -0.053,0.334 -0.319,0.346 v 0 z"
         id="path2600" />
    </clipPath>
    <clipPath
       clipPathUnits="userSpaceOnUse"
       id="clipPath2622">
      <path
         d="m 424.336,615.263 v -4.009 c 0,0.121 0.038,0.346 0.299,0.433 v 0 4.009 c -0.261,-0.086 -0.299,-0.312 -0.299,-0.433"
         id="path2620" />
    </clipPath>
    <clipPath
       clipPathUnits="userSpaceOnUse"
       id="clipPath2654">
      <path
         d="m 430.346,612.816 v -4.008 c 0.174,0.202 3.492,4.047 3.932,4.441 v 0 4.01 c -0.44,-0.395 -3.758,-4.24 -3.932,-4.443"
         id="path2652" />
    </clipPath>
    <clipPath
       clipPathUnits="userSpaceOnUse"
       id="clipPath2670">
      <path
         d="m 424.635,611.687 c 0.368,0 3.254,-1.552 5.711,-2.879 v 0 4.008 c -2.457,1.328 -5.343,2.88 -5.711,2.88 v 0 z"
         id="path2668" />
    </clipPath>
    <clipPath
       clipPathUnits="userSpaceOnUse"
       id="clipPath2694">
      <path
         d="m 439.57,612.816 v -4.008 c 2.51,1.356 5.439,2.876 5.734,2.876 v 0 4.009 c -0.295,0 -3.224,-1.52 -5.734,-2.877"
         id="path2692" />
    </clipPath>
    <clipPath
       clipPathUnits="userSpaceOnUse"
       id="clipPath2722">
      <path
         d="m 434.954,613.651 c 0.234,0 0.396,-0.141 0.684,-0.402 v 0 c 0.441,-0.394 3.758,-4.239 3.932,-4.441 v 0 4.008 c -0.174,0.203 -3.491,4.048 -3.932,4.443 v 0 c -0.288,0.26 -0.45,0.4 -0.684,0.4 v 0 z"
         id="path2720" />
    </clipPath>
    <clipPath
       clipPathUnits="userSpaceOnUse"
       id="clipPath2746">
      <path
         d="M 0,841.89 H 595.276 V 0 H 0 Z"
         id="path2744" />
    </clipPath>
    <clipPath
       clipPathUnits="userSpaceOnUse"
       id="clipPath2778">
      <path
         d="M 0,841.89 H 595.276 V 0 H 0 Z"
         id="path2776" />
    </clipPath>
    <clipPath
       clipPathUnits="userSpaceOnUse"
       id="clipPath2796">
      <path
         d="M 0,841.89 H 595.276 V 0 H 0 Z"
         id="path2794" />
    </clipPath>
    <clipPath
       clipPathUnits="userSpaceOnUse"
       id="clipPath2840">
      <path
         d="m 423.337,451.963 v -4.01 c 0,0.854 0.655,0.854 0.7,0.854 v 0 4.009 c -0.045,0 -0.7,0 -0.7,-0.853"
         id="path2838" />
    </clipPath>
    <clipPath
       clipPathUnits="userSpaceOnUse"
       id="clipPath2884">
      <path
         d="m 445.925,448.807 c 0.044,0 0.7,0 0.7,-0.854 v 0 4.01 c 0,0.853 -0.656,0.853 -0.7,0.853 v 0 z"
         id="path2882" />
    </clipPath>
    <clipPath
       clipPathUnits="userSpaceOnUse"
       id="clipPath2908">
      <path
         d="m 423.86,448.515 c 0,-0.295 0.556,-0.724 3.623,-0.841 v 0 4.009 c -3.067,0.117 -3.623,0.545 -3.623,0.841 v 0 z"
         id="path2906" />
    </clipPath>
    <clipPath
       clipPathUnits="userSpaceOnUse"
       id="clipPath2932">
      <path
         d="m 427.483,447.674 c 3.655,-0.133 6.058,-1.934 6.94,-2.723 v 0 4.009 c -0.882,0.789 -3.285,2.59 -6.94,2.723 v 0 z"
         id="path2930" />
    </clipPath>
    <clipPath
       clipPathUnits="userSpaceOnUse"
       id="clipPath2956">
      <path
         d="m 442.469,451.683 c -3.906,-0.14 -6.381,-2.195 -7.101,-2.876 v 0 -4.009 c 0.72,0.681 3.195,2.737 7.101,2.876 v 0 c 3.076,0.117 3.631,0.547 3.631,0.842 v 0 4.009 c 0,-0.296 -0.555,-0.725 -3.631,-0.842"
         id="path2954" />
    </clipPath>
    <clipPath
       clipPathUnits="userSpaceOnUse"
       id="clipPath3016">
      <path
         d="m 434.423,444.951 c 0.012,-0.013 0.235,-0.249 0.578,-0.249 v 0 4.008 c -0.343,0 -0.566,0.237 -0.578,0.25 v 0 z"
         id="path3014" />
    </clipPath>
    <clipPath
       clipPathUnits="userSpaceOnUse"
       id="clipPath3040">
      <path
         d="m 435.001,448.71 v -4.008 c 0.112,0 0.236,0.026 0.367,0.096 v 0 4.009 c -0.131,-0.071 -0.255,-0.097 -0.367,-0.097"
         id="path3038" />
    </clipPath>
    <clipPath
       clipPathUnits="userSpaceOnUse"
       id="clipPath3068">
      <path
         d="m 437.015,441.451 c 0.253,-0.085 5.049,-1.687 5.4,-4.907 v 0 4.009 c -0.351,3.22 -5.147,4.822 -5.4,4.907 v 0 z"
         id="path3066" />
    </clipPath>
    <clipPath
       clipPathUnits="userSpaceOnUse"
       id="clipPath3080">
      <path
         d="m 427.547,440.553 v -4.009 c 0.351,3.22 5.147,4.822 5.399,4.907 v 0 4.009 c -0.252,-0.085 -5.048,-1.687 -5.399,-4.907"
         id="path3078" />
    </clipPath>
    <clipPath
       clipPathUnits="userSpaceOnUse"
       id="clipPath3108">
      <path
         d="M 0,841.89 H 595.276 V 0 H 0 Z"
         id="path3106" />
    </clipPath>
    <clipPath
       clipPathUnits="userSpaceOnUse"
       id="clipPath3144">
      <path
         d="M 0,841.89 H 595.276 V 0 H 0 Z"
         id="path3142" />
    </clipPath>
    <clipPath
       clipPathUnits="userSpaceOnUse"
       id="clipPath3162">
      <path
         d="M 0,841.89 H 595.276 V 0 H 0 Z"
         id="path3160" />
    </clipPath>
    <clipPath
       clipPathUnits="userSpaceOnUse"
       id="clipPath3198">
      <path
         d="M 0,841.89 H 595.276 V 0 H 0 Z"
         id="path3196" />
    </clipPath>
    <clipPath
       clipPathUnits="userSpaceOnUse"
       id="clipPath3216">
      <path
         d="M 0,841.89 H 595.276 V 0 H 0 Z"
         id="path3214" />
    </clipPath>
    <clipPath
       clipPathUnits="userSpaceOnUse"
       id="clipPath3268">
      <path
         d="m 434.972,286.979 h -0.109 c -6.921,0 -9.557,-3.64 -9.602,-6.159 v 0 -4.01 c 0.045,2.52 2.681,6.161 9.602,6.161 v 0 h 0.109 0.108 c 6.94,0 9.567,-3.641 9.611,-6.161 v 0 4.01 c -0.044,2.519 -2.671,6.159 -9.611,6.159 v 0 z"
         id="path3266" />
    </clipPath>
    <clipPath
       clipPathUnits="userSpaceOnUse"
       id="clipPath3324">
      <path
         d="m 441.209,275.065 v -4.008 c 0.145,0.013 0.37,0.025 0.623,0.025 v 0 4.009 c -0.253,0 -0.478,-0.011 -0.623,-0.026"
         id="path3322" />
    </clipPath>
    <clipPath
       clipPathUnits="userSpaceOnUse"
       id="clipPath3340">
      <path
         d="m 441.832,271.082 c 0.684,0 1.565,-0.083 1.572,-0.43 v 0 4 c 0.007,0.354 -0.883,0.439 -1.572,0.439 v 0 z m 1.572,-0.439 c 0,0.003 0,0.006 0,0.009 v 0 z"
         id="path3338" />
    </clipPath>
    <clipPath
       clipPathUnits="userSpaceOnUse"
       id="clipPath3364">
      <path
         d="m 426.548,274.652 v -4 c 0.007,0.347 0.889,0.43 1.573,0.43 v 0 c 0.252,0 0.478,-0.012 0.623,-0.025 v 0 4.008 c -0.145,0.015 -0.371,0.026 -0.623,0.026 v 0 c -0.689,0 -1.58,-0.085 -1.573,-0.439 m 0,-4.009 v 0.009 c 0,-0.003 0,-0.006 0,-0.009"
         id="path3362" />
    </clipPath>
    <clipPath
       clipPathUnits="userSpaceOnUse"
       id="clipPath3412">
      <path
         d="m 429.904,275.452 c 0,-2.584 1.847,-5.049 1.962,-5.203 v 0 4.009 c -0.115,0.154 -1.962,2.619 -1.962,5.203 v 0 z"
         id="path3410" />
    </clipPath>
    <clipPath
       clipPathUnits="userSpaceOnUse"
       id="clipPath3424">
      <path
         d="m 438.095,274.258 v -4.009 c 0.099,0.161 1.79,2.882 1.79,5.672 v 0 4.009 c 0,-2.79 -1.691,-5.511 -1.79,-5.672"
         id="path3422" />
    </clipPath>
    <clipPath
       clipPathUnits="userSpaceOnUse"
       id="clipPath3448">
      <path
         d="M 0,841.89 H 595.276 V 0 H 0 Z"
         id="path3446" />
    </clipPath>
    <clipPath
       clipPathUnits="userSpaceOnUse"
       id="clipPath3496">
      <path
         d="m 433.122,118.178 c 0.424,-0.341 3.724,-3.064 3.724,-5.896 v 0 4.009 c 0,2.831 -3.3,5.555 -3.724,5.896 v 0 z"
         id="path3494" />
    </clipPath>
    <clipPath
       clipPathUnits="userSpaceOnUse"
       id="clipPath3508">
      <path
         d="m 431.916,117.044 v -4.008 c 1.384,1.72 1.769,2.931 1.769,3.746 v 0 4.009 c 0,-0.816 -0.385,-2.026 -1.769,-3.747"
         id="path3506" />
    </clipPath>
    <clipPath
       clipPathUnits="userSpaceOnUse"
       id="clipPath3532">
      <path
         d="m 436.731,115.402 v -4.008 c 0.079,0.085 1.566,1.689 1.566,2.978 v 0 4.009 c 0,-1.289 -1.487,-2.894 -1.566,-2.979"
         id="path3530" />
    </clipPath>
    <clipPath
       clipPathUnits="userSpaceOnUse"
       id="clipPath3560">
      <path
         d="m 438.296,114.429 c 0.168,-0.143 3.339,-2.876 3.385,-6.917 v 0 4.009 c -0.046,4.041 -3.217,6.773 -3.385,6.916 v 0 z"
         id="path3558" />
    </clipPath>
    <clipPath
       clipPathUnits="userSpaceOnUse"
       id="clipPath3572">
      <path
         d="m 429.043,111.415 v -4.009 c 0,0.547 0.234,2.359 2.873,5.63 v 0 4.008 c -2.639,-3.271 -2.873,-5.082 -2.873,-5.629"
         id="path3570" />
    </clipPath>
    <clipPath
       clipPathUnits="userSpaceOnUse"
       id="clipPath3596">
      <path
         d="M 0,841.89 H 595.276 V 0 H 0 Z"
         id="path3594" />
    </clipPath>
  </defs>
  <g
     id="layer1"
     transform="translate(3.4636305,89.059741)">
    <path
       d="m 11.53849,-83.217891 v 5.75311 l -3.7532005,4.59317 v -5.75276 z"
       style="fill:#a37519;fill-opacity:1;fill-rule:nonzero;stroke:none;stroke-width:0.352778"
       id="path2344" />
    <path
       d="M 7.7852495,-72.871731 H 0.28589952 v -5.75274 H 7.7852495 Z"
       style="fill:#946a18;fill-opacity:1;fill-rule:nonzero;stroke:none;stroke-width:0.352778"
       id="path2346" />
    <path
       d="m 0.28610952,-78.624371 v 5.75276 l -3.74967002,-4.59317 v -5.75311 z"
       style="fill:#704f16;fill-opacity:1;fill-rule:nonzero;stroke:none;stroke-width:0.352778"
       id="path2350" />
    <path
       d="m 7.7853895,-87.811221 3.7532005,4.59351 -3.7532005,4.59352 H 0.28603952 l -3.74967002,-4.59352 3.74967002,-4.59351 z"
       style="fill:#c48518;fill-opacity:1;fill-rule:nonzero;stroke:none;stroke-width:0.352778"
       id="path2354" />
    <path
       d="m 3.4927895,-85.422401 v 1.41429 l -2.16535,0.002 v -1.41429 z"
       style="fill:#946a18;fill-opacity:1;fill-rule:nonzero;stroke:none;stroke-width:0.352778"
       id="path2358" />
    <path
       d="m 7.3695695,-86.262141 v 1.41428 c -0.002,-3.4e-4 -0.0353,-0.005 -0.096,-0.007 v -1.41429 c 0.0607,0.003 0.0935,0.007 0.096,0.007"
       style="fill:#7f5a18;fill-opacity:1;fill-rule:nonzero;stroke:none;stroke-width:0.352778"
       id="path2370" />
    <path
       d="m 7.2734395,-86.269201 v 1.41429 c -0.0268,-0.001 -0.0596,-0.002 -0.0974,-0.002 -0.0427,0 -0.0921,10e-4 -0.14675,0.004 v -1.41428 c 0.0547,-0.003 0.10407,-0.004 0.14675,-0.004 0.0378,0 0.0706,0.001 0.0974,0.002"
       style="fill:#855f18;fill-opacity:1;fill-rule:nonzero;stroke:none;stroke-width:0.352778"
       id="path2374" />
    <path
       d="m 7.0291795,-86.267151 v 1.41429 c -0.0889,0.005 -0.19226,0.0145 -0.30692,0.0328 v -1.41428 c 0.11466,-0.018 0.21802,-0.0279 0.30692,-0.0328"
       style="fill:#8b6318;fill-opacity:1;fill-rule:nonzero;stroke:none;stroke-width:0.352778"
       id="path2378" />
    <path
       d="m 6.7222295,-86.234421 v 1.41429 c -0.11465,0.018 -0.24095,0.0441 -0.375,0.0822 v -1.41429 c 0.13405,-0.0381 0.26035,-0.0642 0.375,-0.0822"
       style="fill:#8f6618;fill-opacity:1;fill-rule:nonzero;stroke:none;stroke-width:0.352778"
       id="path2382" />
    <path
       d="m 6.3470495,-86.152261 v 1.41429 c -0.1778,0.0497 -0.36971,0.1203 -0.56832,0.21837 v -1.41429 c 0.19861,-0.0981 0.39052,-0.16827 0.56832,-0.21837"
       style="fill:#956a19;fill-opacity:1;fill-rule:nonzero;stroke:none;stroke-width:0.352778"
       id="path2386" />
    <path
       d="m 5.7786195,-85.933821 v 1.41429 c -0.0356,0.0176 -0.0716,0.036 -0.1076,0.0557 -0.31538,0.16968 -0.52952,0.35313 -0.67945,0.52599 v -1.41429 c 0.14993,-0.17286 0.36407,-0.35594 0.67945,-0.52598 0.036,-0.0194 0.072,-0.0381 0.1076,-0.0557"
       style="fill:#996d19;fill-opacity:1;fill-rule:nonzero;stroke:none;stroke-width:0.352778"
       id="path2390" />
    <path
       d="m 4.9914295,-85.352121 v 1.41429 c -0.27552,0.31751 -0.33761,0.59972 -0.42404,0.6992 v -1.41428 c 0.0864,-0.0995 0.14852,-0.3817 0.42404,-0.69921"
       style="fill:#956a19;fill-opacity:1;fill-rule:nonzero;stroke:none;stroke-width:0.352778"
       id="path2394" />
    <path
       d="m 4.5673195,-84.652771 v 1.41428 c -0.001,0.002 -0.003,0.003 -0.005,0.005 -0.0272,0.0289 -0.0596,0.0512 -0.0938,0.0684 v -1.41429 c 0.0342,-0.0169 0.0667,-0.0395 0.0938,-0.0681 0.001,-0.002 0.003,-0.003 0.005,-0.005"
       style="fill:#996d19;fill-opacity:1;fill-rule:nonzero;stroke:none;stroke-width:0.352778"
       id="path2398" />
    <path
       d="m 4.4687895,-84.579741 v 1.41428 c -0.0226,0.0113 -0.0469,0.0201 -0.0706,0.0268 v -1.41394 c 0.0236,-0.007 0.048,-0.0159 0.0706,-0.0272"
       style="fill:#956a19;fill-opacity:1;fill-rule:nonzero;stroke:none;stroke-width:0.352778"
       id="path2402" />
    <path
       d="m 4.3981595,-84.552691 v 1.41429 c -0.018,0.005 -0.036,0.009 -0.0533,0.0116 v -1.41429 c 0.0173,-0.003 0.0353,-0.007 0.0533,-0.0116"
       style="fill:#8f6618;fill-opacity:1;fill-rule:nonzero;stroke:none;stroke-width:0.352778"
       id="path2406" />
    <path
       d="m 4.3447895,-84.540971 v 1.41428 c -0.0159,0.002 -0.0317,0.004 -0.0469,0.005 v -1.41428 c 0.0152,-7.1e-4 0.031,-0.002 0.0469,-0.005"
       style="fill:#8b6318;fill-opacity:1;fill-rule:nonzero;stroke:none;stroke-width:0.352778"
       id="path2410" />
    <path
       d="m 4.2979395,-84.536141 v 1.41428 c -0.008,3.5e-4 -0.0166,7.1e-4 -0.0243,7.1e-4 -0.006,0 -0.0123,0 -0.018,-3.6e-4 v -1.41428 c 0.006,3.5e-4 0.0116,3.5e-4 0.018,3.5e-4 0.008,0 0.0162,-3.5e-4 0.0243,-7.1e-4"
       style="fill:#855f18;fill-opacity:1;fill-rule:nonzero;stroke:none;stroke-width:0.352778"
       id="path2414" />
    <path
       d="m 4.2555395,-84.535781 v 1.41428 c -0.0134,-7e-4 -0.0261,-0.002 -0.0378,-0.004 v -1.41429 c 0.0116,0.002 0.0243,0.003 0.0378,0.003"
       style="fill:#7f5a18;fill-opacity:1;fill-rule:nonzero;stroke:none;stroke-width:0.352778"
       id="path2418" />
    <path
       d="m 4.2176495,-84.539241 v 1.41428 c -0.0123,-0.002 -0.0236,-0.004 -0.0342,-0.007 v -1.41429 c 0.0106,0.003 0.0219,0.006 0.0342,0.007"
       style="fill:#7b5717;fill-opacity:1;fill-rule:nonzero;stroke:none;stroke-width:0.352778"
       id="path2422" />
    <path
       d="m 4.1835295,-84.546471 v 1.41428 c -0.0282,-0.008 -0.0494,-0.0198 -0.0589,-0.0342 -0.0378,-0.0603 0.0194,-0.30727 -0.63183,-0.84173 v -1.41428 c 0.65123,0.53446 0.59408,0.7814 0.63183,0.84173 0.01,0.0145 0.0307,0.0265 0.0589,0.0342"
       style="fill:#765417;fill-opacity:1;fill-rule:nonzero;stroke:none;stroke-width:0.352778"
       id="path2426" />
    <path
       d="m 1.3275495,-85.420171 v 1.41429 c -0.0113,0.006 -0.10724,0.0582 -0.22049,0.18839 v -1.41429 c 0.11325,-0.13018 0.2092,-0.18203 0.22049,-0.18838"
       style="fill:#996d19;fill-opacity:1;fill-rule:nonzero;stroke:none;stroke-width:0.352778"
       id="path2438" />
    <path
       d="m 1.1070595,-85.231711 v 1.41428 c -0.0677,0.078 -0.14251998,0.1845 -0.20883998,0.32632 v -1.41429 c 0.0663,-0.14181 0.14110998,-0.248 0.20883998,-0.32631"
       style="fill:#956a19;fill-opacity:1;fill-rule:nonzero;stroke:none;stroke-width:0.352778"
       id="path2442" />
    <path
       d="m 0.89828952,-84.905281 v 1.41428 c -0.0511,0.10866 -0.0974,0.23848 -0.13229,0.39229 v -1.41428 c 0.0349,-0.15382 0.0811,-0.28329 0.13229,-0.39229"
       style="fill:#8f6618;fill-opacity:1;fill-rule:nonzero;stroke:none;stroke-width:0.352778"
       id="path2446" />
    <path
       d="m 0.76599952,-84.513071 v 1.41429 c -0.0296,0.12946 -0.0512,0.27623 -0.0607,0.44203 -7e-4,0.0127 -0.001,0.0251 -0.002,0.0374 v -1.41428 c 3.5e-4,-0.0124 0.001,-0.0247 0.002,-0.0374 0.01,-0.16545 0.031,-0.3122 0.0607,-0.44204"
       style="fill:#8b6318;fill-opacity:1;fill-rule:nonzero;stroke:none;stroke-width:0.352778"
       id="path2450" />
    <path
       d="m 0.70365952,-84.033501 v 1.41428 c -3.5e-4,0.0116 -3.5e-4,0.0233 -3.5e-4,0.0349 v -1.41394 c 0,-0.012 0,-0.0236 3.5e-4,-0.0353"
       style="fill:#855f18;fill-opacity:1;fill-rule:nonzero;stroke:none;stroke-width:0.352778"
       id="path2454" />
    <path
       d="m 0.28610952,-79.874921 v 1.41428 l -3.74967002,-4.59104 v -1.41429 z"
       style="fill:#704f16;fill-opacity:1;fill-rule:nonzero;stroke:none;stroke-width:0.352778"
       id="path2466" />
    <path
       d="M 7.7852495,-78.460781 H 0.28589952 v -1.41428 H 7.7852495 Z"
       style="fill:#946a18;fill-opacity:1;fill-rule:nonzero;stroke:none;stroke-width:0.352778"
       id="path2468" />
    <path
       d="m 11.53849,-84.466041 v 1.41428 l -3.7532005,4.59105 v -1.41429 z"
       style="fill:#a37519;fill-opacity:1;fill-rule:nonzero;stroke:none;stroke-width:0.352778"
       id="path2472" />
    <path
       d="m 7.3695695,-86.131941 v -0.13017 c -0.004,-3.5e-4 -0.0706,-0.009 -0.19367,-0.009 -0.28999,0 -0.87172,0.0512 -1.5046,0.39299 -0.90523,0.48719 -0.9719,1.08444 -1.10843,1.23049 -0.0776,0.0815 -0.19473,0.11218 -0.28928,0.11218 -0.072,0 -0.13088,-0.0176 -0.14887,-0.0452 -0.0381,-0.0603 0.019,-0.30727 -0.63182,-0.84172 l -2.16535,0.002 c -0.0279,0.0152 -0.56197998,0.30515 -0.62229998,1.34902 -0.0571,1.04422 1.11759998,1.40793 2.19709998,1.40793 1.07632,0 1.79705,-0.39087 2.33045,-1.03716 0.5334,-0.64664 0.65087,-1.45063 1.16522,-1.97133 0.41487,-0.42192 0.79234,-0.46249 0.92287,-0.46249 0.0314,0 0.048,0.002 0.0487,0.002 m 0.41592,-2.92734 3.7528505,4.59316 -3.7528505,4.59105 H 0.28616952 l -3.74968002,-4.59105 3.74968002,-4.59316 z"
       style="fill:#f9a71d;fill-opacity:1;fill-rule:nonzero;stroke:none;stroke-width:0.352778"
       id="path2476" />
  </g>
</svg>
