<svg width="128.08mm" height="115.24mm" version="1.1" viewBox="0 0 128.08 115.24" xmlns="http://www.w3.org/2000/svg" xmlns:xlink="http://www.w3.org/1999/xlink">
 <g transform="translate(-45.101 -101.26)">
  <path d="m139.76 211.82s2.3757-8.2641 5.8636-14.305c3.4878-6.0413 9.4161-12.313 9.4161-12.313l-0.15572 0.16398s5.9683-6.1888 9.4561-12.23c3.4878-6.0413 5.9559-14.31 5.9559-14.31s-5.9683-6.1901-9.4561-12.231c-3.4878-6.0413-5.9559-14.31-5.9559-14.31l0.0648 0.21635s-2.3757-8.2627-5.8636-14.304-9.4148-12.313-9.4148-12.313-8.344 2.074-15.32 2.074c-6.977 0-15.372-1.9982-15.372-1.9982l0.22048 0.0524s-8.344-2.074-15.32-2.074c-6.9756 0-15.371 1.9968-15.371 1.9968s-2.3757 8.2641-5.8636 14.305-9.4148 12.313-9.4148 12.313l0.15434-0.16399s-5.9683 6.1888-9.4561 12.23-5.9559 14.311-5.9559 14.311 5.9683 6.1888 9.4561 12.23c3.4878 6.0413 5.9559 14.31 5.9559 14.31l-0.06477-0.21635s2.3757 8.2641 5.8636 14.305c3.4878 6.0399 9.4148 12.311 9.4148 12.311s8.3454-2.074 15.321-2.074c6.9756 0 15.371 1.9968 15.371 1.9968l-0.22048-0.051s8.344 2.074 15.32 2.074c6.977 0 15.372-1.9968 15.372-1.9968z" fill="none" stroke="#b533a1" stroke-miterlimit="10" stroke-width=".29281"/>
 </g>
</svg>
