<svg width="128.08mm" height="115.24mm" version="1.1" viewBox="0 0 128.08 115.24" xmlns="http://www.w3.org/2000/svg" xmlns:xlink="http://www.w3.org/1999/xlink">
 <g transform="translate(-45.101 -101.26)" fill="none" stroke="#b533a1" stroke-miterlimit="10">
  <path d="m139.54 211.93s2.3757-8.2641 5.8636-14.305c3.4878-6.0413 9.4161-12.313 9.4161-12.313l-0.15572 0.16398s5.9683-6.1888 9.4561-12.23c3.4878-6.0413 5.9559-14.31 5.9559-14.31s-5.9683-6.1901-9.4561-12.231c-3.4878-6.0413-5.9559-14.31-5.9559-14.31l0.0648 0.21635s-2.3757-8.2627-5.8636-14.304-9.4148-12.313-9.4148-12.313-8.344 2.074-15.32 2.074c-6.977 0-15.372-1.9982-15.372-1.9982l0.22048 0.0524s-8.344-2.074-15.32-2.074c-6.9756 0-15.371 1.9968-15.371 1.9968s-2.3757 8.2641-5.8636 14.305-9.4148 12.313-9.4148 12.313l0.15434-0.16399s-5.9683 6.1888-9.4561 12.23-5.9559 14.311-5.9559 14.311 5.9683 6.1888 9.4561 12.23c3.4878 6.0413 5.9559 14.31 5.9559 14.31l-0.06477-0.21635s2.3757 8.2641 5.8636 14.305c3.4878 6.0399 9.4148 12.311 9.4148 12.311s8.3454-2.074 15.321-2.074c6.9756 0 15.371 1.9968 15.371 1.9968l-0.22048-0.051s8.344 2.074 15.32 2.074c6.977 0 15.372-1.9968 15.372-1.9968z" stroke-width=".29281"/>
  <g stroke-width=".29492">
   <path d="m45.471 159.02-0.21084 1.1603s0.31006 0.30041 0.83234 0.83509"/>
   <path d="m50.835 166.36c0.92053 1.141 1.8604 2.3812 2.7409 3.6683" stroke-dasharray="3.05435, 3.05435"/>
   <path d="m57.283 176.66c0.67799 1.4855 1.254 2.9228 1.7294 4.2085" stroke-dasharray="3.03459, 3.03459"/>
   <path d="m47.849 162.88c0.32246 0.35278 0.66284 0.7345 1.0184 1.1383m5.5494 7.2802c0.27423 0.4327 0.54019 0.86954 0.79237 1.3064 0.25356 0.43959 0.49885 0.88332 0.73449 1.327m3.5788 8.3606c0.17914 0.52227 0.339 1.006 0.4768 1.44"/>
   <path d="m60.375 184.96c0.21222 0.71933 0.31833 1.1355 0.31833 1.1355l-0.0689-0.22875s0.11576 0.41616 0.33211 1.1314"/>
   <path d="m62.752 192.32c0.80477 2.1649 1.8121 4.6082 2.971 6.8888" stroke-dasharray="2.14454, 2.14454"/>
   <path d="m68.724 204.18c1.7294 2.475 3.7014 4.8617 5.3178 6.7097" stroke-dasharray="2.44722, 2.44722"/>
   <path d="m61.684 189.28c0.10611 0.32246 0.22186 0.66146 0.34313 1.0156m4.1934 9.8571c0.17088 0.31695 0.34589 0.62977 0.52228 0.93569 0.20119 0.34864 0.41203 0.69867 0.63114 1.0501m7.48 9.6656c0.29352 0.32797 0.56913 0.63114 0.82131 0.90675"/>
   <path d="m76.49 213.59c0.51263 0.54432 0.8158 0.85162 0.8158 0.85162s0.4203-0.0937 1.1534-0.24115"/>
   <path d="m84.021 213.23c2.3978-0.35967 5.1635-0.69316 7.8135-0.82407" stroke-dasharray="2.24614, 2.24614"/>
   <path d="m97.259 212.45c2.7202 0.17501 5.3123 0.54019 7.3642 0.89297" stroke-dasharray="2.1209, 2.1209"/>
   <path d="m80.695 213.77c0.35002-0.0634 0.71934-0.12816 1.1066-0.1943m11.155-1.2223c0.37896-0.01 0.75379-0.0152 1.1231-0.0152 0.35278 0 0.70693 4e-3 1.0597 0.0124m10.528 1.1755c0.37345 0.0689 0.72072 0.13643 1.0404 0.20119"/>
   <path d="m107.82 213.96c0.73312 0.15847 1.1493 0.2632 1.1493 0.2632l-0.23151-0.0551s0.41754 0.10473 1.1479 0.26734"/>
   <path d="m115.34 215.48c2.2517 0.36104 4.8424 0.68902 7.3808 0.8158" stroke-dasharray="2.12266, 2.12266"/>
   <path d="m128.27 216.22c3.2549-0.2384 6.0689-0.76343 7.8962-1.1727" stroke-dasharray="2.28282, 2.28282"/>
   <path d="m112.21 214.92c0.33073 0.0648 0.67937 0.13091 1.0432 0.19844m10.532 1.2182c0.35691 0.01 0.71107 0.0138 1.0625 0.0138 0.38309 0 0.76343-4e-3 1.141-0.0138m11.286-1.5503c0.70417-0.17501 1.0983-0.29352 1.1024-0.2949l0.78134-0.20395"/>
   <path d="m140.31 213.99 1.1424-0.29765 0.35415-2.0698s0.0799-0.41341 0.27285-1.1452"/>
   <path d="m143.98 204.96c0.41341-0.9784 0.89711-2.0285 1.4593-3.1254" stroke-dasharray="2.29976, 2.29976"/>
   <path d="m148.73 196.38c2.0409-2.9462 4.2995-5.6734 5.8553-7.4634" stroke-dasharray="2.71145, 2.71145"/>
   <path d="m159.13 183.86c1.7005-1.9761 3.9067-4.7005 5.8002-7.5585" stroke-dasharray="2.72415, 2.72415"/>
   <path d="m168.06 170.77c1.3188-2.7023 2.4722-5.5342 3.3335-7.8011" stroke-dasharray="2.42464, 2.42464"/>
   <path d="m142.77 208.18c0.11437-0.34175 0.23978-0.70418 0.37896-1.0859m2.836-6.2825c0.18052-0.33073 0.36794-0.66559 0.56224-1.0032 0.22462-0.38723 0.45751-0.77584 0.69729-1.1631m8.2407-10.746c0.43408-0.48507 0.7524-0.82958 0.91363-1.0018 0.10887-0.11438 0.4396-0.46302 0.92742-0.9977m8.3426-10.743c0.24253-0.38861 0.4768-0.77859 0.70142-1.1672 0.19981-0.34589 0.39687-0.69866 0.59118-1.0583m4.8645-11.095c0.15021-0.40928 0.28801-0.791 0.41204-1.1396"/>
   <path d="m172.63 159.56c0.24254-0.70693 0.37483-1.1176 0.37483-1.1176s-0.32659-0.27974-0.87505-0.78824"/>
   <path d="m168.4 153.86c-1.4221-1.5792-2.9683-3.4699-4.3188-5.5122" stroke-dasharray="2.00272, 2.00272"/>
   <path d="m161.59 143.96c-1.8948-3.8378-3.3845-7.9458-4.1948-10.356" stroke-dasharray="2.03306, 2.03306"/>
   <path d="m155.84 128.75c-0.90262-2.672-2.4033-6.7234-4.2871-10.381" stroke-dasharray="2.04364, 2.04364"/>
   <path d="m148.64 113.52c-1.6977-2.4694-3.6036-4.8342-5.1635-6.6628" stroke-dasharray="2.40982, 2.40982"/>
   <path d="m170.47 156.05c-0.22463-0.22462-0.45889-0.4644-0.70005-0.7152m-6.226-7.8218c-0.17639-0.28387-0.34727-0.57051-0.51401-0.85852-0.16812-0.29214-0.33349-0.58704-0.49747-0.88745m-5.4502-13.124c-0.14607-0.45062-0.24942-0.78272-0.3073-0.97014-0.0372-0.1254-0.1378-0.46715-0.29765-0.97703m-5.3978-13.226c-0.16261-0.30179-0.32935-0.59944-0.49885-0.89159-0.19844-0.34451-0.40514-0.68902-0.61874-1.0335m-7.2692-9.5925c-0.28525-0.32659-0.55259-0.62977-0.79788-0.90399"/>
   <path d="m141.11 104.18c-0.50436-0.55121-0.80202-0.86265-0.80202-0.86265s-0.41479 0.11851-1.1396 0.30179"/>
   <path d="m133.9 104.75c-2.1497 0.38172-4.6371 0.72485-7.1258 0.85438" stroke-dasharray="2.05176, 2.05176"/>
   <path d="m121.68 105.56c-4.2719-0.27699-8.5755-1.0418-11.067-1.5434" stroke-dasharray="2.03306, 2.03306"/>
   <path d="m105.63 102.93c-2.7643-0.5526-7.0239-1.2802-11.132-1.4773" stroke-dasharray="2.04364, 2.04364"/>
   <path d="m88.92 101.57c-2.9366 0.2508-5.8539 0.75379-8.1511 1.2264" stroke-dasharray="2.35691, 2.35691"/>
   <path d="m136.92 104.15c-0.31833 0.0703-0.65319 0.14194-1.0032 0.2136m-10.167 1.2816c-0.34313 0.01-0.68488 0.0138-1.0253 0.0138-0.33624 0-0.67524-4e-3 -1.017-0.0124m-14.093-1.8424c-0.46164-0.0978-0.80202-0.17501-0.99219-0.21911-0.12815-0.0317-0.47542-0.11437-0.99494-0.23013m-14.152-1.9389c-0.34313-0.01-0.68351-0.0138-1.0225-0.0138-0.38861 0-0.78135 7e-3 -1.1768 0.0193m-11.658 1.6137c-0.41341 0.0909-0.79788 0.17776-1.1493 0.26045"/>
   <path d="m77.339 103.57c-0.72623 0.18052-1.141 0.2949-1.141 0.2949s-0.03445 0.42581-0.15158 1.1686"/>
   <path d="m74.555 110.82c-0.3762 1.0666-0.83647 2.2062-1.4001 3.3776" stroke-dasharray="2.43911, 2.43911"/>
   <path d="m69.883 119.83c-1.9651 3.0248-4.0583 5.8884-5.4777 7.7666" stroke-dasharray="2.71604, 2.71604"/>
   <path d="m60.546 131.96c-2.0161 2.107-4.9692 5.4102-7.2443 8.8525" stroke-dasharray="2.08245, 2.08245"/>
   <path d="m50.328 146.13c-1.5723 3.2287-2.8525 6.4754-3.649 8.6279" stroke-dasharray="2.67758, 2.67758"/>
   <path d="m75.59 107.31c-0.08819 0.37207-0.18879 0.76618-0.30317 1.1824m-2.6789 6.7937c-0.18741 0.35416-0.38309 0.70969-0.5898 1.068-0.22324 0.38723-0.45475 0.77721-0.69178 1.1686m-7.7432 11.147c-0.42168 0.54846-0.71658 0.92191-0.83509 1.0707-0.13229 0.12816-0.38998 0.37621-0.74414 0.72761m-9.2646 11.216c-0.18466 0.29766-0.3638 0.59531-0.53606 0.89159-0.22186 0.38448-0.43822 0.77446-0.65319 1.17m-5.3275 12.267c-0.26734 0.75792-0.4203 1.2182-0.43546 1.2664l-0.10749 0.59118"/>
  </g>
 </g>
</svg>
