<svg width="263.53mm" height="265.29mm" version="1.1" viewBox="0 0 263.53 265.29" xmlns="http://www.w3.org/2000/svg" xmlns:xlink="http://www.w3.org/1999/xlink">
 <g transform="translate(35.073 -27.239)" fill="none" stroke="#bd4794" stroke-miterlimit="10" stroke-width=".35278">
  <path d="m176.52 283.69"/>
  <path d="m188.5 159.96s2.8636-9.9605 7.0666-17.241c4.203-7.2802 11.347-14.839 11.347-14.839l-0.18741 0.19981s7.1934-7.4579 11.396-14.739c4.203-7.2802 7.1768-17.245 7.1768-17.245s-7.1934-7.4593-11.396-14.739c-4.203-7.2802-7.1768-17.245-7.1768-17.245l0.0786 0.26183s-2.8636-9.9591-7.0666-17.239c-4.203-7.2802-11.345-14.839-11.345-14.839s-10.057 2.4998-18.463 2.4998c-8.406 0-18.524-2.4061-18.524-2.4061l0.26596 0.06201s-10.056-2.4998-18.462-2.4998c-8.4074 0-18.524 2.4074-18.524 2.4074s-2.8636 9.9591-7.0666 17.239c-4.2044 7.2802-11.347 14.839-11.347 14.839l0.18741-0.19981s-7.1934 7.4593-11.396 14.739-7.1768 17.245-7.1768 17.245 7.1934 7.4593 11.396 14.74c4.203 7.2802 7.1768 17.246 7.1768 17.246l-0.07855-0.26182s2.8622 9.9577 7.0666 17.238c4.203 7.2802 11.345 14.839 11.345 14.839s10.057-2.4998 18.463-2.4998c8.4074 0 18.525 2.406 18.525 2.406l-0.26734-0.062s10.057 2.4998 18.463 2.4998c8.406 0 18.524-2.4074 18.524-2.4074z"/>
  <path d="m78.062 223.85s2.8636-9.9591 7.0666-17.239c4.203-7.2802 11.345-14.839 11.345-14.839l-0.18604 0.19843s7.192-7.4579 11.396-14.738c4.203-7.2802 7.1768-17.246 7.1768-17.246s-7.1934-7.4579-11.396-14.738c-4.203-7.2802-7.1768-17.246-7.1768-17.246l0.07855 0.26183s-2.8636-9.9591-7.0666-17.239c-4.203-7.2802-11.347-14.837-11.347-14.837s-10.056 2.4998-18.462 2.4998c-8.4074 0-18.524-2.4074-18.524-2.4074l0.26596 0.06201s-10.056-2.4984-18.463-2.4984c-8.406 0-18.524 2.4061-18.524 2.4061s-2.8622 9.9591-7.0666 17.241c-4.203 7.2802-11.345 14.837-11.345 14.837l0.18741-0.19844s-7.1934 7.4579-11.396 14.738c-4.203 7.2816-7.1768 17.246-7.1768 17.246s7.192 7.4579 11.395 14.738c4.2044 7.2816 7.1782 17.246 7.1782 17.246l-0.07855-0.26182s2.8622 9.9591 7.0652 17.239c4.2044 7.2802 11.347 14.837 11.347 14.837s10.057-2.4998 18.463-2.4998c8.4074 0 18.524 2.4074 18.524 2.4074l-0.26596-0.0634s10.057 2.4998 18.463 2.4998 18.524-2.406 18.524-2.406z"/>
  <path d="m195.74 270.38c4.2044-7.2802 11.347-14.839 11.347-14.839l-0.18742 0.19981s7.1934-7.4593 11.396-14.739c4.203-7.2802 7.1768-17.246 7.1768-17.246s-7.192-7.4579-11.396-14.738c-4.203-7.2802-7.1768-17.246-7.1768-17.246l0.0786 0.26183s-2.8622-9.9577-7.0666-17.238c-4.203-7.2802-11.345-14.839-11.345-14.839s-10.056 2.4998-18.463 2.4998c-8.406 0-18.524-2.4074-18.524-2.4074l0.26596 0.0634s-10.056-2.4998-18.462-2.4998c-8.4074 0-18.524 2.4061-18.524 2.4061s-2.8636 9.9591-7.0666 17.241c-4.203 7.2802-11.347 14.837-11.347 14.837l0.18741-0.19844s-7.192 7.4579-11.396 14.74c-4.203 7.2802-7.1768 17.245-7.1768 17.245s7.1934 7.4593 11.396 14.74c4.203 7.2802 7.1768 17.245 7.1768 17.245l-0.07855-0.26183s2.8636 9.9591 7.0666 17.239c4.203 7.2802 11.347 14.839 11.347 14.839s10.056-2.5011 18.463-2.5011c8.406 0 18.522 2.4074 18.522 2.4074l-0.26458-0.0634s10.056 2.4998 18.462 2.4998c8.4074 0 18.524-2.4061 18.524-2.4061s2.8622-9.9591 7.0652-17.239z"/>
  <path d="m77.335 226.32h-0.0014z"/>
  <path d="m190.93 159.22h-1e-3s0.0965-0.49472 0.32798-1.3712"/>
  <path d="m192.08 155.11c0.86265-2.5824 2.2862-6.1474 4.5186-10.011 4.0625-7.0376 10.734-14.316 11.781-15.442 0.63941-0.66972 7.7115-8.1359 11.927-15.438 3.0592-5.2986 5.6899-12.172 7.0184-15.898" stroke-dasharray="2.86808, 2.86808"/>
  <path d="m227.8 96.963c0.29214-0.84612 0.44924-1.3367 0.44924-1.3367s-0.38999-0.33624-1.0459-0.94533"/>
  <path d="m225.22 92.754c-2.5838-2.6004-6.2825-6.7097-8.8966-11.238-4.0528-7.0183-7.017-16.41-7.4814-17.917-0.26045-0.89159-3.1929-10.754-7.4083-18.055-3.0634-5.3054-7.7818-10.874-10.389-13.79" stroke-dasharray="2.77107, 2.77107"/>
  <path d="m190.11 30.726c-0.60358-0.66008-0.9605-1.0322-0.9605-1.0322s-0.49471 0.14194-1.3629 0.36105"/>
  <path d="m185.09 30.689c-3.6738 0.8034-9.3045 1.8052-14.587 1.8052-8.107 0-17.724-2.1291-19.258-2.4818-0.91089-0.22049-10.913-2.61-19.339-2.61-6.084 0-13.005 1.3946-16.725 2.2627" stroke-dasharray="2.77001, 2.77001"/>
  <path d="m113.83 29.99c-0.86816 0.21635-1.3643 0.35416-1.3643 0.35416s-0.04 0.5085-0.1819 1.3987"/>
  <path d="m111.72 34.552c-0.67662 2.8153-1.9375 6.7248-4.2526 10.735-4.1548 7.1975-10.363 15.096-11.088 16.011-1.039 0.99219-8.5066 8.2407-12.612 15.351-2.9945 5.1869-5.4557 11.421-6.7303 14.902" stroke-dasharray="2.86632, 2.86632"/>
  <path d="m76.554 92.9c-0.28112 0.79788-0.43959 1.2788-0.45751 1.3339-0.15572 0.04547-0.62976 0.18052-1.3615 0.36518"/>
  <path d="m71.859 95.256c-2.8443 0.58429-6.8323 1.2237-11.124 1.3532-6.6366 0.20119-13.116-1.0018-16.673-1.819" stroke-dasharray="2.95063, 2.95063"/>
  <path d="m42.627 94.444c-0.8723-0.22049-1.3615-0.36518-1.3615-0.36518l0.27974 0.06615s-0.50023-0.12402-1.3725-0.31833"/>
  <path d="m37.39 93.245c-3.8888-0.76068-9.8902-1.7281-15.252-1.7281-6.1171 0-13.284 1.4786-17.115 2.3868" stroke-dasharray="2.84198, 2.84198"/>
  <path d="m3.6406 94.243c-0.86679 0.21773-1.3629 0.35691-1.3629 0.35691s-0.14056 0.49334-0.40928 1.3491"/>
  <path d="m1.01 98.556c-1.3395 3.8957-3.6807 10.002-6.7483 15.218-4.4786 7.6178-10.065 12.391-10.065 12.391l-0.29352 0.30592s-7.418 7.994-11.836 15.646c-3.0675 5.3123-5.2228 12.288-6.2549 16.057" stroke-dasharray="2.74673, 2.74673"/>
  <path d="m-34.541 159.5c-0.22186 0.86541-0.33762 1.3684-0.33762 1.3684s0.37069 0.35829 0.99494 0.99908"/>
  <path d="m-32.086 163.77c2.6072 2.8319 6.4919 7.3918 9.1956 12.076 2.9159 5.0491 4.8617 10.513 5.8498 13.647" stroke-dasharray="2.61549, 2.61549"/>
  <path d="m-16.659 190.75c0.25218 0.85989 0.37896 1.3574 0.37896 1.3574l-0.08268-0.27561s0.1378 0.49747 0.39688 1.3532"/>
  <path d="m-15.09 195.93c1.2692 3.8144 3.4148 9.5884 6.1006 14.241 3.0758 5.3275 8.0381 11.034 10.769 14.011" stroke-dasharray="2.88819, 2.88819"/>
  <path d="m2.7642 225.24c0.61323 0.65043 0.97427 1.017 0.97427 1.017s0.50436-0.11162 1.3808-0.28801"/>
  <path d="m7.8161 225.46c4.1121-0.74 10.621-1.7267 16.138-1.7267 5.8732 0 11.868 1.0032 15.229 1.6757" stroke-dasharray="2.74673, 2.74673"/>
  <path d="m40.529 225.69c0.87643 0.19017 1.3739 0.31419 1.3739 0.31419l-0.27974-0.0661s0.50023 0.12541 1.3739 0.31971"/>
  <path d="m45.96 226.87c3.893 0.75516 9.791 1.6922 15.07 1.6922 5.5177 0 10.502-0.87368 13.468-1.5296" stroke-dasharray="3.02754, 3.02754"/>
  <path d="m75.972 226.68c0.86954-0.21636 1.3574-0.36243 1.3629-0.36381"/>
  <path d="m208.79 63.43c-8e-3 -0.02618-0.0124-0.03996-0.0124-0.03996z"/>
  <path d="m208.5 129.53c0.0165-0.0165 0.0262-0.0276 0.0262-0.0276z"/>
  <path d="m153.72 161.2c0.0303 7e-3 0.0482 0.011 0.0482 0.011z"/>
  <path d="m151.08 29.974c-0.0289-0.0069-0.0455-0.01103-0.0455-0.01103z"/>
  <path d="m95.428 127.66 0.0124 0.04c-0.0069-0.0262-0.0124-0.04-0.0124-0.04z"/>
  <path d="m95.599 194.72c0.01654-0.0179 0.02618-0.0289 0.02618-0.0289z"/>
  <path d="m95.615 127.87-0.0124-0.04c0.0083 0.0248 0.0124 0.04 0.0124 0.04z"/>
  <path d="m77.335 226.35s0.35002 0.35416 0.96325 1.0294"/>
  <path d="m80.18 229.54c1.7157 2.045 4.0377 5.005 6.4782 8.6927 3.3128 5.0064 5.6155 11.338 6.751 14.884" stroke-dasharray="2.86667, 2.86667"/>
  <path d="m93.835 254.49c0.25632 0.85714 0.38723 1.3546 0.38723 1.3546l-0.08268-0.27423s0.13918 0.49609 0.39963 1.3519"/>
  <path d="m95.419 259.67c1.2995 3.8874 3.4988 9.8158 6.2067 14.504 3.0592 5.2999 7.8645 10.9 10.531 13.844" stroke-dasharray="2.88854, 2.88854"/>
  <path d="m113.13 289.08c0.60909 0.65595 0.96876 1.0253 0.96876 1.0253s0.49885-0.12816 1.3698-0.32935"/>
  <path d="m118.15 289.2c3.8144-0.7717 9.7303-1.7529 15.099-1.7529 8.3606 0 17.755 2.4102 18.743 2.6693 1.396 0.30593 10.557 2.2407 18.696 2.2407 6.0854 0 13.01-1.3064 16.732-2.1194" stroke-dasharray="2.7432, 2.7432"/>
  <path d="m188.76 289.94c0.87092-0.20257 1.3698-0.33211 1.3698-0.33211s0.14607-0.49472 0.41893-1.3463"/>
  <path d="m191.44 285.62c1.2871-3.6821 3.4465-9.2659 6.1226-13.903 3.0262-5.2407 7.5007-10.618 10.021-13.487" stroke-dasharray="2.78553, 2.78553"/>
  <path d="m208.51 257.19c0.5209-0.57739 0.8599-0.9412 0.95222-1.039l-0.12953 0.13781c0.10611-0.113 0.44373-0.47543 0.95085-1.0418"/>
  <path d="m212.05 253.21c2.3206-2.7464 5.6651-7.0004 8.2586-11.493 3.0468-5.2779 5.4791-11.899 6.6959-15.499" stroke-dasharray="2.70193, 2.70193"/>
  <path d="m227.43 224.93c0.2756-0.85025 0.42305-1.3436 0.42305-1.3436s-0.3321-0.39412-0.90123-1.0845"/>
  <path d="m225.05 220.15c-2.8236-3.5443-7.1438-9.215-9.9233-14.03-2.5383-4.3973-3.9715-8.1663-4.7322-10.578" stroke-dasharray="3.03177, 3.03177"/>
  <path d="m209.96 194.08c-0.2384-0.88194-0.32935-1.3712-0.32935-1.3712l0.0827 0.27561s-0.14332-0.49334-0.41203-1.3491"/>
  <path d="m208.44 189c-1.2458-3.6601-3.3238-9.2274-5.8856-14.056-2.8388-5.3537-7.2209-10.757-9.6917-13.622" stroke-dasharray="2.78271, 2.78271"/>
  <path d="m191.94 160.27c-0.59394-0.66835-0.94671-1.0446-0.94671-1.0446"/>
  <path d="m95.623 195c-0.01654 0.0165-0.02618 0.0276-0.02618 0.0276z"/>
  <path d="m209.46 256.15 0.0276-0.0289s-0.011 0.011-0.0276 0.0289z"/>
  <path d="m152.09 290.14s-0.0358-0.01-0.0923-0.0248c-0.11852-0.0262-0.18742-0.0413-0.18742-0.0413z"/>
 </g>
</svg>
